<svg xmlns="http://www.w3.org/2000/svg" width="1440" height="300" viewBox="0 0 1440 300" fill="none"><rect width="1440" height="300" fill="#034A40"></rect><g style="mix-blend-mode:multiply" opacity="0.3"><path d="M1086.66 99.0525C1087.55 98.3823 1088.48 97.7588 1089.46 97.1819C1091.64 95.894 1093.8 94.6003 1096.14 93.5164C1098.79 92.2868 1101.31 90.8241 1104.13 89.9034C1105.89 89.3265 1107.69 88.8137 1109.44 88.196C1114.94 86.2613 1120.67 85.1541 1126.54 84.9851C1132.82 84.8102 1138.98 85.5853 1144.72 88.1727C1147.27 89.3265 1149.94 90.2647 1152.56 91.2962C1152.84 91.4069 1153.14 91.471 1153.53 91.5875C1153.31 90.2939 1153.18 89.1517 1152.92 88.0328C1151.5 81.9082 1152.13 75.7544 1152.53 69.6006C1152.7 66.9899 1152.92 64.3676 1152.8 61.7627C1152.69 59.1287 1151.62 56.6521 1150.44 54.2395C1149.74 52.8001 1149.11 51.3374 1148.56 49.8456C1147.8 47.7477 1147.13 45.6207 1146.48 43.4937C1146.29 42.8935 1146.2 42.2291 1146.26 41.6114C1146.45 39.6359 1147.25 39.1464 1149.37 39.7816C1151.77 40.5042 1154.2 41.2035 1156.51 42.1359C1162.38 44.5135 1168.23 46.9144 1173.99 49.5018C1179.65 52.0426 1184.82 55.2826 1189.53 59.0646C1191.27 60.4574 1192.75 62.0949 1194.4 63.5751C1198.68 67.427 1201.31 72.2754 1204.5 76.7917C1205.57 78.3068 1206.65 79.822 1207.92 81.6168C1208.72 80.3289 1209.58 79.2975 1210.04 78.1378C1211.11 75.4397 1213.22 73.3535 1214.95 71.04C1216.68 68.7207 1218.36 66.3606 1220.1 64.0471C1221.44 62.2639 1222.74 60.4282 1224.25 58.7674C1228.21 54.426 1232.52 50.3934 1237.46 46.9261C1238.17 46.4249 1238.93 45.9471 1239.74 45.5916C1244.64 43.4354 1249.58 41.3725 1254.47 39.1814C1257.62 37.7653 1260.57 36.0521 1262.83 33.5521C1263.56 32.7537 1264.35 32.0136 1265.83 31.2969C1265.41 33.8551 1265.27 36.0579 1264.65 38.1499C1263.53 41.9378 1263.67 45.7431 1263.87 49.5834C1264.12 54.5425 1265.26 59.3327 1266.74 64.0995C1267.83 67.6251 1268.71 71.2148 1269.42 74.822C1270.14 78.5574 1270.06 82.3278 1269.03 86.1505C1269.39 85.8592 1269.78 85.5853 1270.11 85.2648C1272.11 83.2776 1274.26 81.3837 1276.04 79.2392C1277.54 77.4327 1280.01 76.8266 1281.52 75.1309C1285.55 73.1262 1289.49 70.9526 1293.64 69.1752C1296.44 67.9806 1299.51 67.258 1302.5 66.4655C1307.63 65.1018 1312.85 64.1753 1318.16 63.6158C1320.16 63.4061 1322.18 63.3128 1324.19 63.2196C1327.76 63.0564 1331.34 62.835 1334.9 62.8233C1337.56 62.8117 1340.21 63.0506 1342.85 63.2604C1350.83 63.9014 1358.36 66.2091 1365.94 68.2953C1368.1 68.8897 1370.19 69.758 1372.23 70.6612C1373.74 71.3255 1375.14 72.1938 1376.52 73.0563C1378.5 74.2859 1380.5 75.5038 1382.33 76.8908C1385.26 79.1052 1388.01 81.5119 1390.92 83.7322C1392.95 85.2706 1395.09 86.71 1397.29 88.0503C1400.05 89.7344 1403.21 89.6528 1406.31 89.1925C1411.13 88.4815 1415.4 86.4594 1419.65 84.4198C1420.1 84.2042 1420.57 84.0119 1421.05 83.8371C1421.13 83.8079 1421.28 83.9012 1421.59 84.006C1421.41 84.3382 1421.31 84.7345 1421.04 84.9559C1419.87 85.8825 1418.65 86.7624 1417.45 87.654C1416.67 88.2368 1415.89 88.8137 1415.11 89.3906C1415.21 89.5946 1415.2 89.5771 1415.3 89.781C1416.09 89.682 1416.89 89.6353 1417.66 89.478C1420.44 88.9244 1423.2 88.1552 1426.02 87.823C1428.01 87.5899 1430.08 87.9337 1432.53 88.0445C1431.83 88.8487 1431.46 89.3848 1430.97 89.8102C1429.24 91.302 1428.25 93.1901 1427.22 95.0782C1425.89 97.4791 1424.4 99.7984 1423.08 102.199C1422.19 103.814 1421.37 105.468 1420.74 107.17C1419.71 109.932 1419.01 112.794 1417.88 115.521C1416.82 118.079 1415.34 120.48 1413.37 122.624C1409.87 126.43 1406.11 129.967 1401.23 132.362C1394.06 135.882 1386.52 138.557 1378.38 139.687C1378.06 139.734 1377.73 139.745 1377.42 139.833C1374.91 140.532 1372.34 140.625 1369.73 140.73C1366.81 140.841 1363.92 141.319 1360.9 141.651C1360.9 142.076 1360.86 142.467 1360.9 142.852C1361.17 145.392 1361.3 147.951 1361.76 150.468C1362.85 156.394 1362.58 162.303 1361.67 168.207C1361.47 169.471 1361.12 170.718 1360.82 171.965C1359.61 177.169 1357.98 182.251 1355.21 186.983C1353.07 190.636 1350.96 194.314 1348.74 197.932C1347.64 199.716 1346.34 201.394 1345.14 203.125C1344.97 203.364 1344.86 203.632 1344.58 204.127C1345.24 204.15 1345.74 204.279 1346.16 204.174C1351.53 202.787 1356.99 201.662 1361.27 198.032C1363.7 195.969 1366.8 195.129 1370.18 194.96C1374.2 194.762 1378.21 194.389 1382.22 194.04C1383.12 193.964 1384.01 193.719 1384.88 193.474C1388.97 192.321 1393.04 191.114 1397.15 190.001C1398.19 189.722 1399.32 189.617 1400.42 189.623C1404.1 189.634 1407.59 188.865 1411.13 187.985C1415.78 186.825 1420.34 185.532 1424.76 183.795C1425.83 183.376 1426.98 183.131 1428.1 182.839C1428.3 182.787 1428.56 182.886 1429.23 182.973C1428.57 183.352 1428.26 183.597 1427.91 183.719C1425.29 184.611 1422.7 185.543 1420.05 186.342C1417.1 187.227 1414.11 188.008 1411.12 188.778C1409 189.325 1406.86 189.867 1404.7 190.234C1403.25 190.479 1401.73 190.363 1400.25 190.508C1398.91 190.637 1397.54 190.776 1396.26 191.12C1391.89 192.286 1387.58 193.609 1383.2 194.727C1381.4 195.188 1379.49 195.333 1377.61 195.497C1375.09 195.718 1372.55 195.893 1370.01 195.951C1366.73 196.027 1364.01 197.169 1361.53 199.028C1359.64 200.444 1357.73 201.889 1355.33 202.606C1352.55 203.439 1349.79 204.302 1347 205.065C1346.03 205.333 1344.96 205.333 1343.86 205.467C1338.71 211.336 1333.47 217.315 1327.91 223.649C1329.04 223.299 1329.78 223.066 1330.53 222.845C1335.71 221.295 1340.86 219.669 1346.07 218.241C1347.92 217.734 1349.92 217.618 1351.86 217.478C1353.91 217.332 1355.82 216.883 1357.63 216.032C1363.94 213.084 1370.55 210.782 1377.21 208.585C1381.36 207.216 1385.47 205.695 1389.72 204.634C1396.59 202.927 1403.11 200.462 1409.68 198.096C1415.42 196.033 1421.12 193.894 1426.91 191.977C1429.57 191.097 1432.43 190.677 1435.2 190.042C1435.77 189.914 1436.33 189.774 1436.89 189.634C1437.86 189.389 1438.84 189.133 1440 188.836C1439.84 189.879 1439.11 189.867 1438.54 190.001C1435.71 190.666 1432.84 191.213 1430.04 191.994C1426.45 193.002 1422.87 194.092 1419.36 195.333C1410.89 198.329 1402.47 201.441 1394.01 204.465C1392.94 204.85 1391.72 204.902 1390.63 205.258C1383.17 207.693 1375.7 210.088 1368.31 212.67C1364.5 213.999 1360.87 215.747 1357.11 217.204C1355.63 217.775 1354.04 218.369 1352.47 218.439C1348.18 218.626 1344.12 219.593 1340.11 220.811C1336.9 221.778 1333.65 222.652 1330.55 223.853C1327.16 225.164 1323.86 226.703 1320.64 228.311C1315.65 230.799 1310.32 232.419 1304.79 233.561C1300.73 234.401 1296.68 235.251 1292.61 236.044C1290.71 236.411 1288.76 236.609 1286.85 236.947C1284.47 237.373 1282.3 238.218 1280.24 239.424C1278.12 240.671 1276.08 241.982 1274.12 243.427C1271.33 245.49 1268.03 246.195 1264.45 245.863C1260.14 245.467 1255.88 245.537 1251.71 246.801C1248.27 247.844 1244.79 248.823 1241.31 249.779C1239.32 250.327 1237.29 250.758 1235.29 251.254C1231.28 252.25 1227.26 253.235 1223.27 254.266C1222.53 254.459 1221.81 254.779 1221.16 255.146C1216.2 257.984 1210.96 260.309 1205.32 261.836C1200.59 263.118 1195.86 264.424 1191.08 265.531C1189.03 266.003 1186.84 266.102 1184.71 266.16C1180.68 266.265 1176.64 266.09 1172.61 266.277C1169.64 266.411 1166.68 266.848 1163.74 267.296C1158.68 268.071 1153.63 268.951 1148.58 269.802C1145 270.402 1141.41 270.997 1137.85 271.65C1132.06 272.716 1126.27 273.846 1120.48 274.936C1115.01 275.962 1109.54 277.052 1104.03 277.955C1099.43 278.712 1094.79 279.318 1090.15 279.866C1081.7 280.863 1073.26 281.929 1064.94 283.637C1060.63 284.522 1056.27 285.251 1051.95 286.096C1045.53 287.349 1039.12 288.672 1032.69 289.913C1029.39 290.548 1026.05 291.032 1022.74 291.661C1017.01 292.751 1011.29 293.881 1005.58 295.029C1002.59 295.629 999.637 296.329 996.661 296.958C996.244 297.046 995.795 297.005 995.222 296.754C995.554 296.585 995.86 296.329 996.218 296.253C1001.41 295.181 1006.62 294.132 1011.83 293.083C1016.27 292.185 1020.7 291.259 1025.16 290.42C1028.84 289.726 1032.58 289.208 1036.26 288.497C1042.1 287.366 1047.92 286.107 1053.76 284.965C1057.89 284.161 1062.04 283.444 1066.19 282.716C1070.66 281.935 1075.12 281.096 1079.61 280.449C1083.45 279.895 1087.34 279.598 1091.21 279.149C1093.52 278.881 1095.84 278.59 1098.14 278.211C1103.58 277.308 1109.02 276.405 1114.43 275.397C1120.86 274.196 1127.26 272.827 1133.7 271.65C1140.33 270.437 1146.99 269.383 1153.64 268.246C1157.09 267.658 1160.54 267.058 1163.99 266.446C1164.54 266.347 1165.07 266.16 1165.8 265.962C1165.2 265.117 1164.31 265.07 1163.58 264.808C1157.91 262.774 1152.08 261.067 1146.73 258.369C1145.65 257.827 1144.59 257.244 1143.64 256.545C1142.46 255.677 1141.25 255.717 1139.81 255.881C1132.51 256.708 1125.45 258.573 1118.23 259.703C1114.65 260.269 1111.11 261.061 1107.54 261.725C1103.98 262.384 1100.39 262.961 1096.84 263.66C1092.46 264.528 1088.09 265.461 1083.73 266.416C1076.02 268.112 1068.33 269.895 1060.62 271.556C1051.63 273.491 1042.81 275.956 1033.91 278.182C1031.53 278.776 1029.1 279.196 1026.71 279.721C1023.04 280.525 1019.38 281.358 1015.72 282.151C1015.03 282.302 1014.19 282.821 1013.72 281.807L1013.74 281.859C1016.39 281.259 1019.01 280.589 1021.68 280.076C1029.2 278.642 1036.57 276.731 1043.93 274.802C1045.81 274.313 1047.64 273.672 1049.53 273.246C1056.21 271.743 1062.92 270.321 1069.6 268.823C1075.91 267.407 1082.21 265.91 1088.52 264.499C1091.55 263.823 1094.6 263.241 1097.66 262.664C1103.7 261.521 1109.75 260.426 1115.8 259.284C1121.33 258.235 1126.85 257.128 1132.4 256.096C1134.24 255.752 1136.13 255.595 1137.99 255.333C1138.72 255.228 1139.45 255.053 1140.61 254.826C1139.72 254.091 1139.21 253.584 1138.61 253.182C1133.18 249.569 1128.67 245.071 1123.97 240.764C1121.58 238.567 1119.28 236.289 1117.11 233.917C1114.03 230.554 1111.1 227.064 1108.98 223.142C1107.97 221.277 1107.46 219.191 1106.83 217.175C1106.01 214.587 1105.48 211.959 1105.56 209.249C1105.58 208.801 1105.44 208.346 1105.33 207.641C1104.57 207.88 1103.92 208.061 1103.29 208.282C1100.39 209.308 1097.55 210.456 1094.6 211.347C1092.27 212.052 1089.82 212.501 1087.42 212.979C1082.33 213.987 1077.24 214.978 1071.98 214.78C1070.95 214.739 1069.92 214.558 1068.88 214.523C1065.96 214.424 1063.03 214.401 1060.11 214.267C1058.17 214.179 1056.22 214.01 1054.29 213.754C1053.01 213.585 1052.92 213.34 1053.32 212.221C1053.55 211.609 1053.73 210.974 1054.09 210.426C1055.88 207.676 1056.83 204.646 1057.81 201.627C1058.33 200.013 1058.7 198.34 1058.98 196.674C1059.91 191.033 1060.7 185.363 1061.69 179.728C1062.72 173.912 1065.02 168.498 1068.54 163.504C1069.96 161.488 1071.19 159.349 1072.73 157.42C1075.86 153.522 1079.5 150.043 1083.89 147.234C1084.92 146.575 1085.87 145.806 1086.85 145.083C1086.76 144.903 1086.77 144.914 1086.69 144.734C1084.58 144.891 1082.47 145.019 1080.37 145.217C1073.32 145.893 1066.28 146.733 1059.22 147.24C1052.48 147.723 1045.71 147.921 1038.94 148.131C1037.56 148.172 1036.12 147.822 1034.76 147.467C1033.61 147.164 1033.62 146.721 1034.15 145.748C1035.58 143.149 1038.03 141.552 1040.74 140.229C1045.15 138.073 1049.39 135.672 1053.3 132.857C1055.62 131.185 1057.75 129.279 1059.76 127.321C1062.01 125.142 1064.01 122.764 1066.16 120.503C1067.63 118.953 1069.2 117.473 1070.67 115.917C1071.79 114.717 1072.81 113.435 1073.9 112.205C1075.9 109.926 1077.93 107.654 1079.95 105.375C1080.75 104.466 1081.53 103.534 1082.38 102.66C1082.89 102.141 1083.47 101.681 1084.01 101.191C1084.61 100.655 1085.22 100.131 1085.87 99.6469L1086.65 99.0583L1086.66 99.0525ZM1136.96 147.857C1135.49 148.44 1133.96 148.918 1132.58 149.629C1126.7 152.659 1121.49 156.54 1116.24 160.34C1107.93 166.354 1100.15 172.886 1093.19 180.147C1087.56 186.015 1082.19 192.07 1076.72 198.061C1075.89 198.958 1075.21 199.955 1074.46 200.904C1074.59 200.998 1074.72 201.091 1074.84 201.184C1076.88 199.325 1079.02 197.548 1080.92 195.59C1085.53 190.852 1090.03 186.033 1094.56 181.237C1095.86 179.862 1097.05 178.387 1098.45 177.094C1101.47 174.291 1104.54 171.523 1107.7 168.836C1110.85 166.155 1114.13 163.591 1117.36 160.986C1120.74 158.259 1124.37 155.818 1128.23 153.638C1131.31 151.907 1134.49 150.27 1136.94 147.787C1137.83 147.444 1138.72 147.106 1139.61 146.762C1138.6 146.692 1137.72 147.053 1136.96 147.846V147.857ZM1246.78 227.67C1247.79 227.856 1248.7 227.909 1249.51 228.183C1252.3 229.127 1255.03 230.246 1257.85 231.108C1261.78 232.309 1265.8 233.293 1269.74 234.459C1272.01 235.129 1274.31 235.374 1276.66 235.315C1279.51 235.24 1282.36 235.088 1285.22 234.977C1288.53 234.849 1291.77 234.686 1295.03 233.899C1301.71 232.291 1308.23 230.385 1314.45 227.693C1316.31 226.889 1318.06 225.858 1319.76 224.803C1323.9 222.239 1327.45 219.057 1331.02 215.928C1332.59 214.552 1334.12 213.09 1335.41 211.499C1338.98 207.064 1342.71 202.699 1345.83 198.008C1348.58 193.877 1350.98 189.477 1352.83 184.966C1355.47 178.533 1357.42 171.872 1359.79 165.34C1360.71 162.799 1360.76 160.188 1361.03 157.589C1361.17 156.208 1361.27 154.792 1361.1 153.422C1360.68 150.019 1360.2 146.61 1359.55 143.236C1358.32 136.878 1355.55 131.086 1351.11 125.981C1349.4 124.011 1347.53 122.152 1345.71 120.259C1344.74 119.245 1343.82 118.166 1342.73 117.257C1338.36 113.592 1333.56 110.404 1328.67 107.304C1328.09 106.937 1327.51 106.541 1326.88 106.255C1322.41 104.245 1317.99 102.129 1313.43 100.311C1309.64 98.7961 1305.75 97.4616 1301.57 96.9488C1299.98 96.7507 1298.43 96.2495 1296.87 95.8649C1296.06 95.6668 1295.27 95.4162 1294.45 95.2064C1290.95 94.309 1287.47 93.3649 1283.95 92.5432C1281.95 92.0771 1279.9 91.7041 1277.85 91.5176C1275.72 91.3253 1273.57 91.3544 1271.42 91.3719C1267.89 91.4011 1264.42 91.8906 1261.07 92.8521C1256.37 94.1924 1252.3 96.6458 1248.23 99.0467C1246.03 100.346 1244.14 102.077 1242.13 103.633C1237.94 106.867 1233.82 110.16 1231.04 114.536C1228.98 117.764 1226.18 120.597 1224.72 124.134C1224.29 125.171 1223.75 126.173 1223.35 127.216C1222.28 130.008 1220.84 132.706 1220.7 135.859C1221.41 136.173 1222.13 136.57 1222.91 136.832C1226.4 138.009 1229.63 139.594 1232.69 141.494C1233.56 142.036 1234.23 142.636 1234.69 143.545C1235.26 144.658 1234.55 145.369 1233.89 146.249C1234.47 146.435 1234.88 146.564 1235.3 146.703C1239.59 148.114 1243.84 149.553 1246.8 152.933C1249.17 155.637 1250.86 158.562 1251.36 162.041C1251.74 164.739 1250.92 167.257 1250.18 169.768C1247.45 179.075 1245.86 188.434 1247.37 198.09C1248.21 203.492 1249.41 208.865 1248.85 214.407C1248.5 217.827 1248.46 221.26 1247.44 224.599C1247.15 225.543 1247.01 226.516 1246.76 227.658L1246.78 227.67ZM1149.94 256.393C1153.95 258.287 1158.18 259.639 1162.44 260.886C1164.17 261.393 1165.91 261.947 1167.7 262.186C1169.94 262.483 1172.25 262.483 1174.53 262.553C1176.31 262.611 1178.08 262.617 1179.86 262.594C1182.15 262.565 1184.49 262.786 1186.76 262.53C1190.1 262.145 1193.39 261.387 1196.72 260.962C1200.73 260.443 1204.56 259.377 1208.37 258.252C1209.48 257.926 1210.48 257.297 1211.6 257.034C1216 256.003 1219.77 253.759 1223.83 252.087C1224.18 251.947 1224.5 251.76 1224.78 251.533C1229.54 247.757 1234.76 244.365 1238.23 239.459C1239.94 237.035 1241.63 234.954 1242.97 231.994C1243.01 231.889 1243.06 231.784 1243.12 231.679C1243.95 230.181 1244.33 229.546 1244.83 228.416C1246.53 224.488 1247.65 220.426 1247.89 216.201C1248.13 211.953 1247.87 207.734 1247.19 203.515C1246.36 198.399 1245.47 193.271 1245.81 188.067C1246.22 181.884 1247.49 175.829 1249.17 169.833C1250.01 166.837 1251.04 163.871 1249.91 160.753C1249.48 159.594 1249.23 158.347 1248.59 157.286C1246.94 154.541 1244.79 152.205 1241.62 150.666C1237.63 148.726 1233.36 147.671 1228.98 146.674C1221.33 144.932 1213.74 145.585 1206.13 146.552C1201.63 147.123 1197.15 147.916 1192.7 148.731C1190.35 149.163 1188.06 149.839 1185.76 150.462C1184.15 150.899 1182.58 151.435 1180.98 151.913C1180.18 152.152 1179.33 152.286 1178.57 152.612C1175.71 153.848 1172.82 155.06 1170.04 156.429C1166.91 157.968 1163.8 159.547 1160.83 161.319C1157.47 163.312 1154.18 165.415 1151.07 167.688C1146.98 170.666 1143.07 173.83 1139.13 176.965C1136.6 178.976 1134.15 181.056 1131.69 183.131C1131.31 183.445 1131.03 183.853 1130.74 184.244C1128.02 187.933 1125.22 191.586 1122.61 195.339C1121.18 197.402 1119.97 199.605 1118.83 201.819C1117.77 203.876 1116.97 206.044 1116 208.136C1114.02 212.367 1112.77 216.708 1113.16 221.353C1113.4 224.115 1114.02 226.86 1115.45 229.243C1116.88 231.621 1118.97 233.69 1120.89 235.799C1122.13 237.145 1123.56 238.352 1124.96 239.564C1126.74 241.096 1128.53 242.611 1130.4 244.057C1132.21 245.455 1134.12 246.761 1135.99 248.101C1136.65 248.573 1137.28 249.086 1137.99 249.499C1141.96 251.813 1145.96 254.109 1149.95 256.405L1149.94 256.393ZM1054.68 212.245C1054.8 212.344 1054.93 212.443 1055.04 212.536C1055.82 212.186 1056.61 211.866 1057.36 211.487C1060.77 209.768 1063.81 207.571 1066.97 205.526C1070.73 203.096 1073.71 200.077 1076.47 196.825C1078.55 194.366 1080.51 191.814 1082.73 189.459C1086.03 185.951 1089.48 182.542 1092.94 179.151C1096.4 175.753 1099.76 172.251 1103.5 169.116C1108.1 165.264 1112.98 161.668 1117.85 158.096C1121.47 155.45 1125.19 152.881 1129.05 150.526C1133.18 148.003 1137.6 145.893 1142.2 144.11C1144.34 143.283 1146.42 142.152 1148.66 141.704C1152.45 140.946 1156.35 140.625 1160.21 140.124C1161.04 140.014 1161.93 140.043 1162.7 139.786C1165.99 138.697 1169.27 137.572 1172.51 136.36C1177.67 134.425 1183.15 133.778 1188.59 132.933C1189.16 132.846 1189.75 132.933 1190.34 132.91C1191.38 132.875 1192.42 132.869 1193.45 132.758C1195.23 132.566 1196.97 132.222 1198.81 132.432C1201.25 132.712 1203.73 132.77 1206.19 132.922C1206.68 132.951 1207.17 132.968 1207.66 132.986C1206.97 132.117 1206.13 131.517 1205.27 130.934C1202.92 129.32 1200.1 128.51 1197.43 127.467C1195.76 126.82 1194.07 126.197 1192.33 125.725C1187.54 124.425 1182.58 124.175 1177.65 124.53C1171.11 124.996 1164.6 125.835 1158.08 126.517C1151.78 127.176 1145.64 128.394 1139.73 130.492C1139.25 130.661 1138.73 130.748 1138.24 130.888C1132.15 132.584 1126.06 134.256 1119.98 135.981C1116.2 137.053 1112.46 138.242 1108.67 139.285C1102.76 140.905 1096.83 142.414 1090.92 144.029C1090.02 144.273 1089.15 144.763 1088.4 145.287C1087.08 146.214 1085.8 147.205 1084.6 148.265C1082.94 149.734 1081.18 151.156 1079.82 152.828C1076.29 157.14 1074.33 162.21 1071.88 167.018C1069.08 172.525 1066.9 178.271 1065.18 184.139C1064.55 186.272 1064.17 188.469 1063.68 190.631C1063.62 190.916 1063.63 191.219 1063.52 191.487C1062.82 193.3 1062.17 195.124 1061.39 196.907C1059.48 201.295 1057.51 205.665 1055.57 210.042C1055.25 210.764 1054.97 211.505 1054.67 212.239L1054.68 212.245ZM1035.66 145.287C1035.75 145.404 1035.84 145.52 1035.94 145.643C1036.59 145.462 1037.24 145.299 1037.88 145.095C1039.29 144.646 1040.67 144.116 1042.1 143.726C1045.57 142.776 1049.08 141.878 1052.57 140.975C1053.7 140.684 1054.82 140.363 1055.97 140.177C1060.72 139.402 1065.35 138.254 1069.84 136.68C1070.93 136.301 1071.95 135.783 1073 135.328C1076.46 133.848 1079.97 132.455 1083.38 130.876C1090.94 127.374 1098.04 123.126 1105.75 119.839C1110.09 117.992 1114.2 115.725 1118.48 113.761C1123.46 111.477 1128.53 109.396 1134.08 108.382C1138.93 107.496 1143.77 107.473 1148.6 108.359C1150.06 108.627 1151.5 109.029 1152.93 109.408C1155.49 110.078 1158.05 110.725 1160.57 111.488C1163.16 112.269 1165.67 113.248 1168.26 114C1173.86 115.614 1179.18 117.77 1184.21 120.48C1188.23 122.648 1192.45 124.419 1196.85 125.888C1196.92 125.917 1197.05 125.818 1197.26 125.748C1196.52 124.868 1195.74 124.041 1195.08 123.137C1193.6 121.092 1192.3 118.918 1190.69 116.96C1187.96 113.639 1185.22 110.282 1181.3 107.945C1179.46 106.85 1177.53 105.871 1175.67 104.798C1173.71 103.662 1171.81 102.438 1169.83 101.325C1167.69 100.119 1165.46 99.0292 1163.31 97.8346C1159.12 95.5036 1154.91 93.2076 1150.15 91.9081C1149.15 91.64 1148.19 91.2088 1147.17 91.0806C1143.19 90.5736 1139.19 90.0841 1135.18 89.7461C1133.12 89.5713 1131.02 89.7636 1128.94 89.7344C1120.77 89.6062 1112.86 90.9232 1105.26 93.4989C1100.34 95.1656 1095.57 97.1994 1090.76 99.1224C1087.23 100.538 1084.05 102.479 1081.41 105.002C1079.2 107.123 1077.25 109.46 1075.21 111.727C1073.7 113.405 1072.27 115.13 1070.76 116.809C1068.44 119.39 1066.14 121.989 1063.72 124.501C1060.38 127.986 1057.09 131.564 1052.85 134.227C1049.13 136.564 1045.26 138.714 1041.46 140.963C1039.95 141.861 1038.43 142.758 1037 143.743C1036.44 144.128 1036.11 144.763 1035.67 145.282L1035.66 145.287ZM1219.32 135.48C1219.75 133.131 1220.24 131.138 1220.45 129.122C1220.79 125.859 1221.57 122.689 1222.65 119.577C1223.84 116.133 1224.79 112.59 1226.81 109.431C1229.77 104.781 1232.87 100.195 1235.86 95.556C1237.62 92.8346 1239.62 90.1948 1240.93 87.3044C1242.57 83.6506 1243.69 79.7986 1244.9 75.9992C1245.77 73.2661 1246.37 70.4573 1247.21 67.7125C1248.07 64.8513 1249.05 62.0133 1250.03 59.1812C1250.9 56.6812 1251.63 54.1288 1252.79 51.7395C1254.68 47.8526 1256.87 44.0764 1258.91 40.2478C1259.08 39.939 1259.12 39.5718 1259.25 39.1173C1256.84 40.0497 1254.64 40.8888 1252.46 41.7455C1250.74 42.4215 1249.04 43.1149 1247.34 43.8317C1245.52 44.6009 1243.54 45.1895 1241.94 46.2326C1236.97 49.4901 1232.77 53.4237 1229.46 58.1206C1226.82 61.856 1224.07 65.5272 1221.25 69.1636C1219.93 70.8768 1218.26 72.3803 1216.88 74.0703C1214.63 76.8441 1212.46 79.6821 1210.31 82.5259C1209.44 83.6797 1208.6 84.8685 1207.93 86.1214C1206.56 88.6913 1205.28 91.302 1204 93.9069C1201.97 98.0677 1199.98 102.234 1197.98 106.407C1197.85 106.675 1197.73 106.96 1197.71 107.24C1197.42 110.078 1197 112.91 1196.92 115.754C1196.87 118.178 1197.21 120.614 1197.39 123.05C1197.41 123.271 1197.52 123.499 1197.65 123.697C1198.54 125.066 1199.54 126.348 1201.18 127.094C1203.16 127.997 1205.16 128.848 1207.09 129.804C1208.51 130.503 1210.04 131.162 1211.17 132.158C1213.4 134.145 1216.38 134.332 1219.31 135.474L1219.32 135.48ZM1401.55 90.6144C1401.56 90.5095 1401.57 90.4046 1401.58 90.2939C1400.72 90.119 1399.83 90.0316 1399.02 89.7461C1395.61 88.534 1392.57 86.7916 1389.89 84.548C1387.33 82.4035 1384.89 80.1308 1382.15 78.1786C1378.91 75.8593 1375.44 73.7905 1372.02 71.6752C1371.18 71.1565 1370.16 70.8535 1369.2 70.4922C1366.57 69.5016 1363.88 68.7148 1361.06 68.1612C1354.78 66.9317 1348.58 65.3582 1342.11 65.0261C1336.77 64.7522 1331.42 64.9445 1326.2 65.9118C1318.62 67.3104 1311.1 68.9596 1303.59 70.6379C1300.57 71.3139 1297.71 72.5377 1294.69 73.1845C1289.14 74.3616 1284.01 76.4887 1278.78 78.3884C1278.09 78.6448 1277.43 79.1052 1276.89 79.5888C1275.27 81.0166 1273.68 82.4734 1272.12 83.9594C1270.16 85.8359 1268.73 88.0328 1267.41 90.288C1267.6 90.4104 1267.7 90.527 1267.8 90.527C1268.25 90.527 1268.71 90.4628 1269.16 90.4687C1272.99 90.5211 1276.87 90.2531 1280.63 90.7367C1284.32 91.2088 1287.89 92.4558 1291.52 93.3474C1293.07 93.7262 1294.59 94.2973 1296.24 93.5514C1298.74 92.4267 1301.27 91.3603 1303.82 90.3346C1307.79 88.7379 1311.67 86.9431 1316.05 86.3487C1316.95 86.2263 1317.84 86.0223 1318.71 85.8009C1323.87 84.4956 1329.14 83.8371 1334.48 83.5107C1338.71 83.2543 1342.92 83.534 1347.13 83.8312C1351.79 84.1634 1356.47 84.4839 1361.1 85.02C1364.26 85.3872 1367.46 85.8359 1370.45 86.7508C1374.68 88.0445 1379.06 88.4874 1383.37 89.3556C1388.66 90.4221 1394.09 90.3871 1399.47 90.7076C1400.16 90.7484 1400.86 90.6435 1401.55 90.6027V90.6144ZM1110.75 219.657C1110.86 218.894 1110.97 218.34 1111.01 217.781C1111.24 214.517 1111.74 211.312 1113.06 208.235C1113.83 206.446 1114.45 204.605 1115.2 202.804C1116.63 199.366 1117.92 195.84 1120.26 192.798C1123.46 188.632 1126.96 184.652 1131.03 181.109C1135.48 177.257 1140.05 173.574 1145.2 170.456C1148.9 168.207 1152.23 165.468 1155.91 163.189C1159.92 160.713 1164.11 158.469 1168.28 156.208C1170.33 155.095 1172.5 154.133 1174.65 153.178C1176.27 152.461 1177.93 151.802 1179.63 151.226C1181.82 150.485 1184.04 149.839 1186.26 149.18C1188.05 148.65 1189.82 148.009 1191.66 147.694C1196.06 146.942 1200.5 146.389 1204.91 145.701C1213.37 144.39 1221.83 143.842 1230.27 145.748C1231.63 146.057 1232.68 145.858 1233.55 144.78C1233.55 143.854 1233 143.137 1232.15 142.648C1229.09 140.876 1226.07 139.064 1222.56 138.015C1220.91 137.519 1219.34 136.785 1217.71 136.197C1216.55 135.777 1215.37 135.136 1214.18 136.033C1213.11 134.92 1211.68 134.757 1210.4 134.571C1202.91 133.475 1195.35 133.615 1187.83 134.122C1184.17 134.367 1180.55 135.299 1176.96 136.103C1171.57 137.315 1166.36 139.122 1161.55 141.535C1155.84 144.402 1150.47 147.816 1144.96 151.016C1144.14 151.488 1143.41 152.065 1142.63 152.572C1140.1 154.209 1137.4 155.666 1135.07 157.513C1131.91 160.019 1128.99 162.77 1126.06 165.503C1124.91 166.587 1123.94 167.851 1122.99 169.104C1120.35 172.589 1118.39 176.394 1116.54 180.252C1115.65 182.123 1114.56 183.929 1113.73 185.817C1111.84 190.106 1110.49 194.518 1109.7 199.098C1108.72 204.78 1108.64 210.456 1109.22 216.155C1109.34 217.326 1109.6 218.55 1110.74 219.669L1110.75 219.657ZM1037.36 146.569C1037.38 146.738 1037.4 146.913 1037.42 147.082C1037.91 147.152 1038.4 147.28 1038.89 147.275C1040.64 147.257 1042.4 147.222 1044.15 147.135C1049.73 146.843 1055.32 146.569 1060.89 146.191C1065.1 145.905 1069.29 145.491 1073.49 145.095C1077.82 144.681 1082.15 144.238 1086.47 143.772C1092.06 143.166 1097.38 141.558 1102.76 140.212C1107.45 139.04 1112.06 137.642 1116.69 136.307C1120.9 135.095 1125.08 133.819 1129.29 132.613C1132.13 131.797 1135.01 131.08 1137.85 130.258C1141.94 129.075 1146.01 127.898 1150.22 127.123C1151.1 126.96 1151.98 126.733 1152.88 126.616C1156.16 126.191 1159.45 125.818 1162.74 125.398C1169.68 124.501 1176.61 123.487 1183.68 123.907C1184.15 123.936 1184.64 123.761 1185.6 123.603C1184.56 123.027 1183.94 122.624 1183.26 122.327C1179.53 120.666 1175.84 118.936 1172.03 117.421C1169.55 116.43 1166.91 115.754 1164.34 114.938C1162.75 114.431 1161.17 113.93 1159.58 113.423C1157.99 112.91 1156.46 112.17 1154.82 111.919C1150.79 111.296 1146.72 110.859 1142.65 110.404C1137.7 109.851 1133.12 111.372 1128.6 112.794C1123.27 114.478 1118.28 116.902 1113.28 119.256C1110.59 120.527 1107.83 121.704 1105.17 123.032C1101.31 124.961 1097.51 126.983 1093.69 128.971C1091.95 129.874 1090.2 130.777 1088.48 131.704C1084.28 133.959 1079.95 135.923 1075.15 136.954C1073.39 137.333 1071.66 137.875 1069.98 138.493C1066 139.973 1061.85 140.958 1057.68 141.867C1053.2 142.84 1048.68 143.685 1044.2 144.687C1041.89 145.206 1039.64 145.94 1037.37 146.581L1037.36 146.569ZM1427.73 91.1214C1427.66 90.999 1427.59 90.8708 1427.52 90.7484C1425.56 91.267 1423.72 92.0712 1421.89 92.9045C1415.98 95.6027 1411.03 99.4721 1406.05 103.295C1403.64 105.148 1401.3 107.094 1398.74 108.767C1394.41 111.605 1389.52 113.493 1384.53 115.235C1374.29 118.813 1363.73 121.162 1352.79 122.141C1351.86 122.222 1350.92 122.374 1349.74 122.525C1350.27 123.213 1350.58 123.72 1350.99 124.151C1355.13 128.452 1357.93 133.388 1359.72 138.807C1360.34 140.655 1360.65 140.882 1362.71 140.672C1365.49 140.392 1368.26 140.072 1371.03 139.711C1376.01 139.064 1380.75 137.595 1385.46 136.08C1388.02 135.258 1390.53 134.373 1392.54 132.549C1396.19 129.239 1399.94 126.01 1403.73 122.834C1406.83 120.241 1409.59 117.438 1412.05 114.332C1414.65 111.057 1417.38 107.934 1419.13 104.152C1420.38 101.436 1422.32 98.9593 1424.01 96.4127C1425.2 94.6236 1426.49 92.8871 1427.73 91.1214ZM1153.06 144.005C1153.03 143.906 1153.01 143.813 1152.99 143.714C1152.29 143.801 1151.56 143.807 1150.9 144C1147.88 144.891 1144.84 145.754 1141.88 146.803C1140.27 147.374 1138.77 148.224 1137.32 149.087C1134.23 150.923 1131.22 152.857 1128.17 154.734C1126.67 155.654 1125.06 156.453 1123.65 157.467C1121.38 159.098 1119.3 160.963 1116.99 162.554C1111.3 166.488 1106.65 171.388 1101.49 175.817C1098.54 178.346 1096 181.254 1093.28 183.987C1091.6 185.677 1089.74 187.257 1088.24 189.069C1084.26 193.847 1079.91 198.3 1074.92 202.245C1070.03 206.12 1064.72 209.471 1058.76 211.93C1058.16 212.181 1057.49 212.379 1057.04 213.212C1058.49 213.294 1059.71 213.387 1060.93 213.433C1063.46 213.533 1066 213.608 1068.52 213.684C1071.31 213.766 1074.12 214.08 1076.88 213.859C1082.6 213.404 1088.21 212.28 1093.67 210.706C1096.94 209.762 1100.04 208.346 1103.25 207.233C1104.98 206.633 1105.73 205.555 1105.92 203.964C1106.11 202.297 1106.32 200.613 1106.74 198.981C1108.64 191.715 1111.17 184.623 1114.63 177.822C1116.41 174.314 1118.37 170.87 1121.05 167.851C1124.52 163.935 1128.12 160.101 1132.57 156.989C1137.18 153.766 1141.68 150.416 1146.7 147.677C1148.85 146.499 1150.94 145.223 1153.05 143.994L1153.06 144.005ZM1149.21 43.0275C1148.77 44.0298 1149.23 44.834 1149.56 45.6207C1150.75 48.3946 1152.02 51.1335 1153.15 53.9248C1154.56 57.4038 1155.54 60.9527 1154.48 64.6881C1154.4 64.9678 1154.41 65.265 1154.41 65.5564C1154.39 70.2766 1154.61 74.9735 1155.48 79.6413C1156.17 83.3359 1157.71 86.7624 1159.94 89.816C1162.28 93.0153 1165.11 95.964 1168.69 98.1959C1169.81 98.8952 1170.88 99.6644 1171.97 100.393C1173.64 101.494 1175.25 102.7 1177.02 103.656C1180.28 105.399 1183.31 107.421 1185.94 109.822C1188.03 111.716 1189.71 113.959 1191.58 116.039C1192.4 116.96 1193.24 117.875 1194.29 119.035C1194.4 118.388 1194.5 118.108 1194.48 117.84C1194.34 116.162 1194.16 114.489 1194.01 112.811C1193.38 106.045 1190.8 99.7868 1187.68 93.6854C1186.62 91.6283 1185.39 89.6412 1184.29 87.6016C1182.23 83.7729 1180.17 79.9385 1178.18 76.0807C1175.64 71.1449 1172.35 66.6286 1168.75 62.2814C1166.96 60.1369 1165.28 57.9283 1163.48 55.7896C1161.84 53.8374 1160.29 51.7745 1158.39 50.0554C1155.79 47.7186 1152.88 45.6557 1150.09 43.4879C1149.86 43.3072 1149.55 43.2082 1149.2 43.0275H1149.21ZM1427.85 89.0817C1427.84 88.9535 1427.83 88.8253 1427.81 88.6971C1427.27 88.7146 1426.71 88.668 1426.17 88.7612C1424.28 89.0992 1422.41 89.4547 1420.57 90.1016C1418.8 90.7309 1416.78 90.8183 1414.87 91.1097C1413.72 91.2845 1412.54 91.3195 1411.57 92.0363C1410.52 92.8171 1409.4 93.5281 1408.37 94.3206C1404.49 97.3043 1400.17 99.2856 1395.01 99.9616C1389.99 100.62 1385.04 100.521 1380.05 99.9266C1377.35 99.6003 1374.61 99.0583 1371.91 99.1632C1366.32 99.373 1360.78 100.107 1355.47 101.885C1352.85 102.759 1350.27 103.837 1347.56 104.367C1343.38 105.189 1339.11 105.632 1334.87 106.209C1333.38 106.413 1331.88 106.541 1330.38 106.704C1336.27 110.847 1342.13 114.787 1346.91 119.722C1347.16 119.722 1347.3 119.757 1347.42 119.722C1353.69 117.881 1360.26 117.31 1366.67 115.999C1370.4 115.235 1374.19 114.635 1377.89 113.749C1380.2 113.196 1382.38 112.228 1384.63 111.488C1389.23 109.979 1393.66 108.161 1397.72 105.684C1403.2 102.345 1408.64 98.9534 1414.13 95.6201C1415.69 94.6703 1417.28 93.7437 1418.94 92.9686C1421.88 91.605 1424.88 90.3696 1427.85 89.0759L1427.85 89.0817ZM1149.92 41.1103C1149.82 41.2618 1149.72 41.4191 1149.62 41.5706C1150.21 42.0077 1150.8 42.4448 1151.4 42.876C1152.26 43.4937 1153.2 44.0473 1153.98 44.7349C1158.94 49.1055 1163.92 53.4528 1168.78 57.9108C1173.21 61.9842 1176.69 66.6636 1179.39 71.8325C1180.81 74.5598 1182.64 77.118 1184.28 79.7578C1185.66 81.9898 1187.09 84.2042 1188.39 86.4827C1189.49 88.3941 1190.35 90.4104 1191.43 92.3218C1192.97 95.0257 1194.2 97.8287 1195.09 100.754C1195.56 102.293 1196.15 103.802 1196.79 105.626C1197.9 102.91 1198.81 100.562 1199.84 98.26C1201.18 95.2355 1202.64 92.2519 1204.04 89.2449C1204.59 88.0619 1205.13 86.879 1205.64 85.6844C1205.74 85.4338 1205.81 85.1016 1205.72 84.8627C1205.4 84.0468 1205.1 83.2019 1204.62 82.4559C1203.21 80.2357 1201.72 78.0446 1200.25 75.8535C1199.12 74.1577 1197.94 72.4794 1196.83 70.7719C1194.69 67.5086 1192.63 64.2102 1189.88 61.3024C1186.71 57.9516 1183.25 54.9504 1178.85 52.8875C1175.53 51.32 1172.28 49.6125 1168.94 48.0566C1166.82 47.0659 1164.62 46.1976 1162.42 45.3527C1159.67 44.2921 1156.91 43.2723 1154.13 42.3049C1152.76 41.8271 1151.33 41.5065 1149.93 41.1161L1149.92 41.1103ZM1225.15 121.121C1225.73 120.363 1226.31 119.606 1226.89 118.848C1229.09 115.97 1231.11 112.957 1233.54 110.241C1235.65 107.893 1238.17 105.836 1240.61 103.744C1244.52 100.387 1248.72 97.3509 1253.48 94.9908C1256.73 93.3824 1259.91 91.6575 1263.66 91.1039C1265.41 90.8475 1266.38 89.8568 1266.52 88.3009C1266.62 87.1995 1266.7 86.0981 1266.79 84.9967C1267.05 82.0131 1266.86 79.0644 1266.11 76.1448C1265.31 73.0272 1264.44 69.9153 1263.79 66.7685C1262.67 61.3315 1262.17 55.8304 1262 50.3001C1261.87 46.0811 1262.04 41.9203 1263.24 37.8236C1263.35 37.4681 1263.29 37.0719 1263.32 36.4542C1262.85 36.7863 1262.52 36.9145 1262.39 37.1418C1260.77 39.9856 1258.82 42.7128 1258.06 45.8888C1257.51 48.2198 1257.13 50.5915 1256.65 52.94C1255.75 57.4096 1254.95 61.9026 1253.87 66.3431C1253.13 69.3442 1252.06 72.2929 1250.99 75.2183C1250.12 77.59 1249 79.8919 1248.02 82.2345C1245.88 87.3335 1243.1 92.1178 1239.44 96.4768C1237.72 98.5222 1236.01 100.585 1234.43 102.718C1230.22 108.382 1227.3 114.594 1225.15 121.121H1225.15ZM1301.11 95.5386C1301.64 95.6842 1301.93 95.8008 1302.22 95.8357C1305.81 96.2553 1309.18 97.3625 1312.44 98.6562C1316.18 100.131 1319.87 101.716 1323.46 103.464C1325.63 104.524 1327.64 104.565 1329.79 103.697C1332.76 102.485 1335.47 100.906 1337.97 99.0234C1339.71 97.718 1341.42 96.3194 1343.39 95.3404C1347.32 93.3882 1351.67 93.0735 1356.08 93.4407C1357.25 93.5397 1358.41 93.6971 1359.57 93.7845C1365.12 94.1924 1370.53 95.1889 1375.76 96.8439C1380.64 98.394 1385.62 98.8951 1390.73 98.3474C1392.98 98.1084 1395.21 97.6423 1397.45 97.3334C1400.94 96.8614 1404.06 95.6668 1406.87 93.7787C1408.17 92.9104 1410.1 91.0281 1410.62 90.0025C1409.32 90.2997 1408.1 90.492 1406.96 90.8591C1403.27 92.0537 1399.47 92.0363 1395.62 91.9022C1389.84 91.6983 1384.15 90.5736 1378.32 90.7309C1375.42 90.8067 1372.49 90.4162 1369.59 90.1365C1363.26 89.5363 1356.93 88.8661 1350.6 88.2368C1346.28 87.8114 1342 86.8906 1337.6 87.3685C1335.02 87.6482 1332.4 87.8055 1329.89 88.3591C1326.63 89.0759 1323.49 90.2589 1320.23 91.0048C1315.2 92.1528 1310.11 93.0969 1305.04 94.1341C1303.75 94.4022 1302.44 94.6586 1301.13 95.5386H1301.11ZM1282.03 236.906C1281.97 236.784 1281.91 236.662 1281.84 236.539C1281.4 236.51 1280.96 236.481 1280.52 236.446C1276.32 236.143 1272.11 236.178 1268.01 235.001C1263.56 233.725 1258.98 232.845 1254.67 231.184C1253.8 230.852 1252.77 230.554 1251.87 230.648C1250.01 230.834 1248.19 231.324 1246.34 231.638C1245.49 231.778 1244.98 232.192 1244.54 232.821C1242.99 234.972 1241.34 237.064 1239.83 239.232C1236.43 244.092 1231.6 247.74 1226.89 251.481C1226.59 251.714 1226.34 251.982 1225.83 252.454C1226.46 252.39 1226.72 252.396 1226.96 252.332C1233.5 250.595 1240.07 248.969 1246.55 247.075C1252.3 245.403 1258.06 244.138 1264.14 244.931C1267.69 245.391 1270.63 244.313 1273.36 242.419C1275.25 241.102 1277.22 239.861 1279.17 238.614C1280.1 238.019 1281.08 237.477 1282.03 236.906H1282.03ZM1378.82 89.5713C1376.55 89.1051 1374.21 88.8253 1372.02 88.1377C1367.44 86.7041 1362.74 85.8592 1357.95 85.4279C1353.49 85.0258 1349.01 84.7753 1344.55 84.3965C1338.81 83.9128 1333.1 84.2916 1327.45 85.09C1323.36 85.6669 1319.35 86.6867 1315.3 87.52C1313.84 87.823 1312.32 87.9978 1310.96 88.5107C1306.89 90.0491 1302.88 91.7158 1298.87 93.3707C1298.32 93.598 1297.88 94.0292 1297.32 94.4138C1298.64 95.0432 1298.63 94.9908 1299.82 94.711C1303.78 93.7787 1307.72 92.7997 1311.72 92.013C1315.4 91.2903 1319.03 90.457 1322.59 89.309C1328.83 87.2927 1335.26 86.1972 1341.92 86.6167C1345.09 86.8149 1348.24 87.2986 1351.39 87.6249C1357.46 88.2543 1363.54 88.837 1369.6 89.4838C1372.69 89.8102 1375.76 90.0491 1378.82 89.5713H1378.82ZM1256.4 48.6393C1256.22 48.5869 1256.04 48.5344 1255.85 48.482C1254.52 50.778 1253.11 53.0449 1252.3 55.5682C1251.52 58.0273 1250.9 60.5331 1249.99 62.9573C1248.37 67.3221 1247.02 71.7393 1245.95 76.2497C1245 80.2881 1243.65 84.245 1241.72 88.0037C1240.66 90.0608 1239.32 92.0013 1238.05 93.9651C1234.6 99.3031 1231.04 104.583 1227.67 109.967C1225.66 113.184 1224.76 116.797 1223.64 120.323C1224.02 119.839 1224.35 119.338 1224.59 118.808C1225.57 116.651 1226.37 114.425 1227.51 112.345C1229.11 109.425 1230.9 106.587 1232.72 103.767C1233.69 102.263 1234.77 100.795 1235.96 99.4255C1239.08 95.8474 1242.13 92.2402 1244.18 88.0561C1245.63 85.0783 1246.96 82.048 1248.44 79.076C1250.41 75.125 1251.85 71.0225 1252.81 66.7918C1253.99 61.5471 1255.03 56.2791 1256.11 51.0111C1256.27 50.2302 1256.3 49.426 1256.39 48.6277L1256.4 48.6393ZM1164.9 55.5157C1164.81 55.6031 1164.71 55.6847 1164.61 55.7721C1165.52 56.9726 1166.4 58.1905 1167.34 59.3676C1169.08 61.5354 1170.93 63.645 1172.63 65.8419C1176.46 70.7778 1179.07 76.3138 1182.26 81.5644C1183.96 84.3732 1185.39 87.316 1186.81 90.2472C1188.61 93.9768 1190.87 97.5199 1192.16 101.471C1193.97 106.984 1195.13 112.543 1194.98 118.301C1194.97 118.749 1195.25 119.198 1195.47 119.874C1195.7 119.466 1195.81 119.361 1195.8 119.28C1195.21 116.482 1195.6 113.72 1196.13 110.958C1196.53 108.93 1196.45 106.92 1195.77 104.932C1194.32 100.649 1192.98 96.3544 1190.69 92.3218C1188.37 88.2309 1186.4 83.9769 1183.52 80.1425C1182.21 78.4059 1181.09 76.5528 1179.99 74.7113C1178.11 71.5936 1176.49 68.3419 1174.44 65.3233C1171.91 61.5821 1168.38 58.5518 1164.9 55.5274L1164.9 55.5157ZM1404.08 103.062C1403.71 103.26 1403.33 103.446 1402.97 103.65C1400.29 105.177 1397.67 106.803 1394.92 108.207C1389.81 110.812 1384.27 112.526 1378.73 114.21C1376.17 114.991 1373.44 115.375 1370.78 115.905C1367.36 116.593 1363.93 117.257 1360.5 117.91C1356.94 118.586 1353.37 119.21 1349.82 119.909C1349.19 120.031 1348.61 120.422 1348.01 120.684C1348.03 120.835 1348.05 120.987 1348.07 121.138C1348.57 121.249 1349.09 121.488 1349.58 121.459C1352.31 121.284 1355.05 121.185 1357.73 120.783C1362.34 120.09 1366.96 119.344 1371.5 118.341C1375.27 117.508 1378.98 116.372 1382.64 115.189C1386.85 113.825 1390.92 112.118 1394.78 110.066C1398.28 108.213 1401.32 105.876 1404.2 103.347C1404.22 103.33 1404.16 103.242 1404.08 103.068V103.062ZM1075.24 135.462C1075.28 135.596 1075.32 135.73 1075.37 135.859C1075.72 135.812 1076.1 135.829 1076.42 135.707C1079.17 134.664 1082.02 133.767 1084.63 132.49C1090.06 129.85 1095.34 126.966 1100.73 124.268C1105.15 122.053 1109.65 119.944 1114.12 117.805C1116.35 116.739 1118.59 115.667 1120.87 114.676C1124.91 112.922 1129.08 111.5 1133.4 110.358C1136.33 109.583 1139.24 109.216 1142.25 109.484C1144.9 109.717 1147.54 110.02 1150.19 110.276C1150.5 110.305 1150.82 110.218 1151.13 110.183C1150.67 109.787 1150.19 109.635 1149.7 109.507C1146.73 108.749 1143.7 108.639 1140.63 108.604C1137.18 108.563 1133.79 109.012 1130.67 110.049C1125.56 111.745 1120.61 113.86 1115.7 115.981C1111.56 117.77 1107.8 120.165 1103.55 121.855C1099.1 123.615 1095.02 126.08 1090.76 128.201C1087.63 129.751 1084.48 131.272 1081.33 132.758C1079.32 133.702 1077.27 134.565 1075.24 135.462ZM1140.78 145.759C1140.84 145.882 1140.9 146.01 1140.96 146.132C1141.21 146.074 1141.46 146.033 1141.69 145.946C1145.36 144.646 1148.97 143.201 1152.96 142.787C1153.85 142.694 1154.74 142.548 1155.62 142.374C1156.59 142.181 1157.55 141.937 1158.52 141.709C1158.48 141.593 1158.44 141.476 1158.4 141.354C1151.98 141.109 1146.27 143.102 1140.78 145.748V145.759ZM1174.91 117.421C1177.64 118.551 1180.04 120.305 1183.05 120.87C1180.45 119.507 1177.92 117.997 1174.91 117.421ZM1245.71 230.339C1245.85 230.49 1245.88 230.525 1246.03 230.677C1247.22 230.45 1248.23 230.485 1249.43 229.465C1248.25 229.214 1247.37 229.034 1246.38 228.824C1246.12 229.412 1245.92 229.873 1245.71 230.339H1245.71ZM1158.88 111.774C1160.08 113.038 1161.31 113.44 1163.55 113.33C1161.71 112.718 1160.3 112.246 1158.88 111.774ZM1173.23 116.797C1171.69 116.203 1170.36 115.101 1168.54 115.305C1170.11 115.801 1171.66 116.296 1173.23 116.797ZM1189.42 124.105C1189.4 124.215 1189.38 124.332 1189.36 124.443C1189.7 124.483 1190.03 124.53 1190.37 124.571C1190.39 124.495 1190.41 124.414 1190.43 124.338C1190.09 124.262 1189.76 124.18 1189.43 124.105H1189.42Z" fill="#034A40" fill-opacity="0.5"></path><path d="M1219.83 227.588C1219.24 228.171 1218.65 228.754 1218.07 229.337C1217.92 229.476 1217.91 229.721 1218.08 229.855C1218.24 229.983 1218.5 229.995 1218.66 229.844C1219.24 229.261 1219.84 228.678 1220.42 228.095C1220.57 227.956 1220.58 227.711 1220.41 227.577C1220.25 227.449 1219.99 227.437 1219.83 227.588Z" fill="#034A40" fill-opacity="0.5"></path><path d="M1204.4 232.373C1203.82 232.961 1203.23 233.544 1202.65 234.133C1202.51 234.272 1202.49 234.517 1202.66 234.651C1202.83 234.779 1203.09 234.791 1203.24 234.64C1203.83 234.051 1204.41 233.468 1204.99 232.88C1205.14 232.74 1205.15 232.495 1204.98 232.361C1204.82 232.233 1204.56 232.221 1204.4 232.373Z" fill="#034A40" fill-opacity="0.5"></path><path d="M1209.13 219.791C1208.54 220.38 1207.96 220.963 1207.38 221.551C1207.23 221.691 1207.22 221.936 1207.39 222.07C1207.55 222.198 1207.81 222.21 1207.97 222.058C1208.56 221.47 1209.14 220.887 1209.72 220.298C1209.87 220.158 1209.88 219.914 1209.71 219.78C1209.55 219.651 1209.29 219.64 1209.13 219.791Z" fill="#034A40" fill-opacity="0.5"></path><path d="M1204.87 206.237C1204.28 206.825 1203.7 207.408 1203.12 207.996C1202.98 208.136 1202.96 208.381 1203.13 208.515C1203.29 208.643 1203.55 208.655 1203.71 208.503C1204.3 207.915 1204.88 207.332 1205.46 206.744C1205.61 206.604 1205.62 206.359 1205.45 206.225C1205.29 206.097 1205.03 206.085 1204.87 206.237Z" fill="#034A40" fill-opacity="0.5"></path><path d="M1217.86 204.727C1217.27 205.316 1216.68 205.898 1216.1 206.487C1215.96 206.627 1215.95 206.872 1216.12 207.006C1216.28 207.134 1216.54 207.146 1216.7 206.994C1217.28 206.405 1217.87 205.823 1218.45 205.234C1218.59 205.094 1218.61 204.85 1218.44 204.716C1218.27 204.587 1218.01 204.576 1217.86 204.727Z" fill="#034A40" fill-opacity="0.5"></path><path d="M1225.26 191.814C1224.69 192.408 1224.12 193.003 1223.54 193.603C1223.41 193.748 1223.39 193.987 1223.56 194.121C1223.71 194.244 1223.99 194.267 1224.14 194.11C1224.71 193.515 1225.28 192.921 1225.85 192.321C1225.99 192.175 1226.01 191.936 1225.84 191.802C1225.69 191.68 1225.41 191.656 1225.26 191.814Z" fill="#034A40" fill-opacity="0.5"></path><path d="M1230.37 201.953C1229.78 202.542 1229.2 203.125 1228.62 203.713C1228.47 203.853 1228.46 204.098 1228.63 204.232C1228.79 204.36 1229.05 204.372 1229.21 204.22C1229.8 203.632 1230.38 203.049 1230.96 202.46C1231.1 202.32 1231.12 202.076 1230.95 201.942C1230.79 201.814 1230.52 201.802 1230.37 201.953Z" fill="#034A40" fill-opacity="0.5"></path><path d="M1221.53 216.032C1220.95 216.621 1220.36 217.204 1219.78 217.792C1219.64 217.932 1219.63 218.177 1219.8 218.311C1219.96 218.439 1220.22 218.451 1220.38 218.299C1220.96 217.711 1221.55 217.128 1222.13 216.539C1222.27 216.4 1222.28 216.155 1222.11 216.021C1221.95 215.893 1221.69 215.881 1221.53 216.032Z" fill="#034A40" fill-opacity="0.5"></path><path d="M1192.99 216.272C1192.41 216.86 1191.82 217.443 1191.24 218.031C1191.1 218.171 1191.09 218.416 1191.25 218.55C1191.42 218.678 1191.68 218.69 1191.83 218.538C1192.42 217.95 1193.01 217.367 1193.59 216.779C1193.73 216.639 1193.74 216.394 1193.57 216.26C1193.41 216.132 1193.15 216.12 1192.99 216.272Z" fill="#034A40" fill-opacity="0.5"></path><path d="M1194.64 231.044C1194.07 231.638 1193.49 232.239 1192.93 232.833C1192.79 232.979 1192.77 233.218 1192.94 233.352C1193.1 233.474 1193.37 233.497 1193.52 233.34C1194.09 232.745 1194.67 232.145 1195.23 231.551C1195.37 231.405 1195.39 231.166 1195.22 231.032C1195.06 230.91 1194.79 230.887 1194.64 231.044Z" fill="#034A40" fill-opacity="0.5"></path><path d="M1197.53 241.819C1196.92 242.384 1196.31 242.95 1195.69 243.509C1195.54 243.649 1195.54 243.894 1195.71 244.028C1195.88 244.156 1196.12 244.162 1196.29 244.016C1196.9 243.451 1197.51 242.885 1198.12 242.326C1198.27 242.186 1198.27 241.941 1198.11 241.807C1197.94 241.679 1197.69 241.673 1197.53 241.819Z" fill="#034A40" fill-opacity="0.5"></path><path d="M1187.88 245.712C1187.29 246.294 1186.7 246.871 1186.1 247.454C1185.96 247.594 1185.95 247.839 1186.12 247.973C1186.28 248.101 1186.54 248.112 1186.7 247.961C1187.29 247.378 1187.88 246.801 1188.47 246.219C1188.62 246.079 1188.63 245.834 1188.46 245.7C1188.3 245.572 1188.04 245.56 1187.88 245.712Z" fill="#034A40" fill-opacity="0.5"></path><path d="M1181.11 238.643C1180.52 239.226 1179.92 239.803 1179.33 240.385C1179.19 240.525 1179.17 240.77 1179.34 240.904C1179.51 241.032 1179.77 241.044 1179.92 240.892C1180.52 240.31 1181.11 239.733 1181.7 239.15C1181.84 239.01 1181.86 238.765 1181.69 238.631C1181.53 238.503 1181.26 238.491 1181.11 238.643Z" fill="#034A40" fill-opacity="0.5"></path><path d="M1184.24 230.823C1183.65 231.405 1183.06 231.982 1182.46 232.565C1182.32 232.705 1182.31 232.95 1182.48 233.084C1182.64 233.212 1182.9 233.224 1183.06 233.072C1183.65 232.489 1184.24 231.912 1184.83 231.33C1184.98 231.19 1184.99 230.945 1184.82 230.811C1184.66 230.683 1184.4 230.671 1184.24 230.823Z" fill="#034A40" fill-opacity="0.5"></path><path d="M1335.89 175.031C1335.52 175.742 1335.15 176.452 1334.78 177.163C1334.68 177.338 1334.75 177.571 1334.96 177.653C1335.15 177.735 1335.41 177.676 1335.5 177.49C1335.88 176.779 1336.25 176.068 1336.62 175.357C1336.71 175.182 1336.64 174.949 1336.44 174.867C1336.24 174.786 1335.99 174.844 1335.89 175.031Z" fill="#034A40" fill-opacity="0.5"></path><path d="M1322.71 183.649C1322.35 184.36 1321.97 185.077 1321.61 185.788C1321.52 185.963 1321.58 186.196 1321.79 186.278C1321.99 186.353 1322.24 186.301 1322.34 186.114C1322.7 185.403 1323.07 184.687 1323.44 183.976C1323.53 183.801 1323.47 183.568 1323.26 183.486C1323.06 183.41 1322.81 183.463 1322.71 183.649Z" fill="#034A40" fill-opacity="0.5"></path><path d="M1323.11 170.38C1322.74 171.091 1322.37 171.808 1322.01 172.519C1321.92 172.694 1321.98 172.927 1322.19 173.009C1322.38 173.084 1322.64 173.032 1322.74 172.845C1323.1 172.134 1323.47 171.418 1323.84 170.707C1323.93 170.532 1323.86 170.299 1323.65 170.217C1323.46 170.142 1323.21 170.194 1323.11 170.38Z" fill="#034A40" fill-opacity="0.5"></path><path d="M1314.6 158.545C1314.23 159.256 1313.86 159.973 1313.5 160.684C1313.4 160.858 1313.47 161.092 1313.68 161.173C1313.87 161.249 1314.13 161.196 1314.22 161.01C1314.59 160.299 1314.96 159.582 1315.33 158.871C1315.42 158.696 1315.35 158.463 1315.14 158.382C1314.95 158.306 1314.69 158.359 1314.6 158.545Z" fill="#034A40" fill-opacity="0.5"></path><path d="M1326.51 153.691C1326.15 154.402 1325.78 155.119 1325.41 155.83C1325.32 156.004 1325.39 156.237 1325.59 156.319C1325.79 156.395 1326.04 156.342 1326.14 156.156C1326.51 155.445 1326.88 154.728 1327.24 154.017C1327.33 153.842 1327.27 153.609 1327.06 153.528C1326.86 153.452 1326.61 153.504 1326.51 153.691Z" fill="#034A40" fill-opacity="0.5"></path><path d="M1329.36 139.408C1329.01 140.124 1328.66 140.847 1328.31 141.564C1328.23 141.739 1328.28 141.972 1328.49 142.053C1328.69 142.129 1328.95 142.077 1329.04 141.89C1329.39 141.173 1329.74 140.451 1330.09 139.734C1330.18 139.559 1330.12 139.326 1329.91 139.244C1329.72 139.169 1329.46 139.221 1329.36 139.408Z" fill="#034A40" fill-opacity="0.5"></path><path d="M1337.57 147.764C1337.21 148.475 1336.84 149.192 1336.47 149.903C1336.38 150.078 1336.44 150.311 1336.65 150.392C1336.85 150.468 1337.1 150.416 1337.2 150.229C1337.56 149.518 1337.94 148.801 1338.3 148.09C1338.39 147.916 1338.33 147.683 1338.12 147.601C1337.92 147.525 1337.67 147.578 1337.57 147.764Z" fill="#034A40" fill-opacity="0.5"></path><path d="M1333.73 163.539C1333.37 164.25 1333 164.967 1332.63 165.678C1332.54 165.853 1332.61 166.086 1332.82 166.167C1333.01 166.243 1333.27 166.191 1333.36 166.004C1333.73 165.293 1334.1 164.577 1334.46 163.866C1334.56 163.691 1334.49 163.458 1334.28 163.376C1334.09 163.3 1333.83 163.353 1333.73 163.539Z" fill="#034A40" fill-opacity="0.5"></path><path d="M1306.52 171.249C1306.16 171.96 1305.79 172.677 1305.42 173.388C1305.33 173.562 1305.4 173.796 1305.6 173.877C1305.8 173.953 1306.05 173.9 1306.15 173.714C1306.52 173.003 1306.89 172.286 1307.25 171.575C1307.34 171.4 1307.28 171.167 1307.07 171.086C1306.87 171.01 1306.62 171.062 1306.52 171.249Z" fill="#034A40" fill-opacity="0.5"></path><path d="M1312.94 184.943C1312.58 185.666 1312.23 186.383 1311.88 187.105C1311.8 187.28 1311.86 187.513 1312.06 187.595C1312.26 187.67 1312.52 187.618 1312.61 187.432C1312.96 186.709 1313.31 185.992 1313.67 185.27C1313.75 185.095 1313.69 184.862 1313.48 184.78C1313.29 184.704 1313.03 184.757 1312.94 184.943Z" fill="#034A40" fill-opacity="0.5"></path><path d="M1319.23 194.489C1318.83 195.188 1318.43 195.887 1318.03 196.587C1317.93 196.756 1318.01 196.995 1318.21 197.076C1318.41 197.158 1318.65 197.094 1318.76 196.913C1319.16 196.214 1319.56 195.514 1319.96 194.815C1320.05 194.646 1319.98 194.407 1319.77 194.326C1319.57 194.244 1319.33 194.308 1319.23 194.489Z" fill="#034A40" fill-opacity="0.5"></path><path d="M1311.28 200.736C1310.9 201.447 1310.52 202.158 1310.15 202.863C1310.06 203.037 1310.12 203.271 1310.33 203.352C1310.53 203.434 1310.78 203.375 1310.88 203.189C1311.26 202.478 1311.63 201.767 1312 201.062C1312.1 200.887 1312.03 200.654 1311.82 200.572C1311.63 200.491 1311.37 200.549 1311.28 200.736Z" fill="#034A40" fill-opacity="0.5"></path><path d="M1302.49 195.759C1302.11 196.47 1301.73 197.181 1301.36 197.886C1301.27 198.061 1301.34 198.294 1301.55 198.376C1301.74 198.457 1302 198.399 1302.09 198.212C1302.47 197.501 1302.85 196.79 1303.22 196.085C1303.31 195.91 1303.25 195.677 1303.04 195.596C1302.84 195.514 1302.59 195.572 1302.49 195.759Z" fill="#034A40" fill-opacity="0.5"></path><path d="M1302.92 187.455C1302.54 188.166 1302.17 188.877 1301.79 189.582C1301.7 189.757 1301.77 189.99 1301.98 190.072C1302.17 190.153 1302.43 190.095 1302.52 189.908C1302.9 189.197 1303.28 188.486 1303.65 187.781C1303.74 187.607 1303.68 187.373 1303.47 187.292C1303.27 187.21 1303.02 187.269 1302.92 187.455Z" fill="#034A40" fill-opacity="0.5"></path></g><g style="mix-blend-mode:multiply" opacity="0.3"><path d="M0.121705 83.1393C-0.242979 77.1894 0.825025 71.4107 1.90171 65.6074C2.71791 61.198 4.43714 57.0819 6.14768 52.9577C8.55286 47.1708 11.288 41.498 14.7959 36.2409C17.2011 32.6383 20.2575 29.427 22.9145 25.9712C24.9723 23.3059 27.3341 20.9423 29.9477 18.7579C35.0706 14.4707 40.9229 11.349 47.2875 8.9772C50.2137 7.88502 53.1746 7.05366 56.2657 6.51572C58.2888 6.16525 60.2512 5.53765 62.257 5.07307C62.8821 4.92636 63.542 4.86931 64.1846 4.853C68.9168 4.7389 73.623 4.8204 78.2423 5.99409C81.8804 6.92325 85.6141 7.559 89.2176 8.60227C94.9657 10.2568 100.167 12.971 104.934 16.4105C106.618 17.625 108.277 18.872 109.961 20.0864C112.184 21.684 114.077 23.5993 115.701 25.7185C118.957 29.9568 121.744 34.4396 123.81 39.3137C124.262 40.3895 125.043 41.3432 125.46 42.4272C126.372 44.8235 127.136 47.2686 127.996 49.6812C128.421 50.8875 128.881 52.0856 129.402 53.2593C129.567 53.6261 129.967 53.9032 130.271 54.2129C130.427 54.3678 130.766 54.5145 130.748 54.6368C130.609 55.8593 131.721 56.1609 132.441 56.7478C135.394 59.1359 138.441 61.4262 141.255 63.9447C142.505 65.0613 143.373 66.5855 144.285 68.0037C146.308 71.1498 147.333 74.5812 147.515 78.2571C147.576 79.4634 147.784 80.6779 148.019 81.876C148.54 84.6064 148.244 87.288 147.628 89.9614C147.463 90.6623 147.22 91.3633 146.881 91.999C145.214 95.1044 143.677 98.2994 141.741 101.258C139.596 104.551 137.104 107.656 134.69 110.802C133.449 112.416 132.137 113.989 130.739 115.489C127.796 118.66 124.766 121.765 121.796 124.911C117.784 129.158 113.165 132.776 108.502 136.346C105.958 138.294 103.223 140.071 100.08 141.196C98.873 141.628 97.7095 142.198 96.572 142.785C93.9758 144.114 91.1712 144.961 88.4795 146.037C85.6141 147.187 82.6445 147.757 79.6663 148.409C75.4377 149.33 71.1483 149.51 66.8329 149.534C59.8344 149.575 53.2354 147.92 46.9663 145.239C42.0778 143.152 37.6581 140.275 33.7508 136.729C30.9115 134.154 27.8811 131.774 24.9202 129.321C17.0708 122.825 10.9233 115.13 6.31266 106.303C3.87274 101.633 2.28376 96.7427 1.31127 91.6648C0.764244 88.8447 0.512439 85.9676 0.121705 83.123V83.1393ZM127.414 52.974C127.527 52.8762 127.64 52.7784 127.753 52.6806C127.709 52.4769 127.692 52.2731 127.631 52.0775C126.216 47.562 124.844 43.0466 122.69 38.7594C119.495 32.402 115.666 26.5172 110.143 21.635C105.22 17.2908 99.5329 14.055 93.5503 11.3246C90.3029 9.84116 86.6734 9.00165 83.1308 8.20289C78.1294 7.06181 72.963 6.93955 67.8401 6.71134C66.4335 6.64613 64.9834 6.49127 63.6115 6.71134C60.5985 7.20037 57.5855 7.77906 54.642 8.54522C51.6985 9.31137 48.8157 10.3139 45.9417 11.3001C43.5625 12.1152 41.1834 12.971 38.8998 13.9898C37.3195 14.6908 35.6697 15.3836 34.5062 16.7203C34.1415 17.1441 33.7421 17.5435 33.3427 17.9347C31.6495 19.6219 29.8174 21.1786 28.3934 23.1103C26.6829 25.4251 24.8421 27.6665 23.036 29.9242C22.0462 31.1631 20.9348 32.3205 20.0144 33.6083C15.4471 40.0554 11.6874 46.8693 9.89872 54.4982C9.23013 57.3591 8.6831 60.2688 8.41393 63.1786C7.85822 69.267 9.57745 75.054 11.5311 80.7757C12.3386 83.1393 13.4848 85.4134 14.2228 87.7933C15.204 90.9802 16.8364 93.8574 18.7987 96.547C23.01 102.301 28.2371 107.175 34.02 111.544C38.9519 115.261 44.153 118.627 49.5017 121.781C52.5494 123.574 55.6145 125.343 58.7664 126.981C60.9806 128.131 63.2729 129.312 65.8343 129.524C70.1758 129.891 74.5433 130.152 78.9022 130.258C84.7632 130.405 90.5547 129.867 96.2247 128.302C100.94 126.998 105.542 125.425 109.866 123.232C112.245 122.026 114.58 120.689 116.743 119.173C120.138 116.785 123.376 114.193 126.676 111.691C129.889 109.262 133.171 106.915 136.149 104.2C139.639 101.022 142.253 97.3132 144.606 93.4009C144.98 92.7815 145.205 92.0724 145.388 91.3714C146.204 88.2498 146.872 85.1118 146.82 81.8597C146.733 76.0157 145.032 70.7097 141.107 66.1128C138.103 62.608 133.97 60.4318 130.036 57.7992C128.143 61.1002 127.171 64.5805 126.146 68.0363C125.686 69.5768 125.434 71.1906 124.852 72.6903C123.576 75.9668 122.143 79.1945 120.797 82.4465C118.844 87.182 116.378 91.6241 112.879 95.5445C110.56 98.1446 107.773 100.117 104.508 101.527C101.921 102.644 99.1682 103.271 96.4504 104.037C93.9324 104.738 91.3883 105.219 88.7921 105.17C84.7806 105.097 80.769 104.934 76.7749 104.592C68.474 103.874 60.2251 102.79 52.3497 100.06C49.5972 99.1063 46.6711 98.5439 44.1096 97.1094C43.3455 96.6856 42.538 96.3433 41.7565 95.952C39.6899 94.8925 37.6147 93.8655 35.7653 92.4473C34.2371 91.2818 33.4556 89.8473 33.117 88.0949C32.4831 84.8754 32.9259 81.6641 33.4209 78.5017C33.8463 75.8283 34.8101 73.2282 35.3137 70.563C35.9302 67.2376 37.3542 64.1974 38.9693 61.2713C40.8969 57.791 43.0937 54.4248 45.386 51.1402C46.8013 49.1188 48.4163 47.1545 50.2745 45.4918C52.6449 43.3645 55.5971 42.0849 58.8359 41.3595C61.0066 40.8704 63.0905 39.9413 65.2786 39.6071C70.0108 38.8898 74.8125 38.7513 79.5881 39.0691C83.4607 39.33 87.3247 39.8924 91.1712 40.4629C94.601 40.9764 98.0481 41.5469 101.4 42.3701C104.465 43.12 107.565 43.8372 110.413 45.2473C111.446 45.7608 112.601 46.0623 113.677 46.5188C116.152 47.5702 118.627 48.6053 121.058 49.7383C123.211 50.7489 125.295 51.89 127.414 52.9659V52.974ZM129.454 55.4355C128.473 54.7998 127.744 54.2455 126.936 53.8135C124.878 52.7214 122.829 51.621 120.711 50.6511C117.055 48.9803 113.434 47.2034 109.657 45.8178C102.945 43.3563 95.9382 41.824 88.8529 40.6504C82.3233 39.5745 75.7503 39.5093 69.1252 40.0472C65.0355 40.3814 61.3539 41.8322 57.5161 42.8836C53.4524 44.0002 50.4395 46.584 48.043 49.7872C46.5842 51.7351 45.3078 53.7972 43.8665 55.7534C41.8781 58.4431 39.9244 61.1328 39.6118 64.5316C39.5944 64.6946 39.5337 64.8576 39.4902 65.0206C38.5698 68.7128 38.0749 72.4295 38.5004 76.2276C38.5525 76.7085 38.457 77.2139 38.3615 77.6947C38.0662 79.1619 38.2659 80.5882 38.9085 81.9249C39.9331 84.0522 41.114 86.098 43.0763 87.6222C44.344 88.6084 45.6638 89.5457 46.9576 90.5075C52.4713 94.6154 58.6535 97.3132 65.5999 98.4869C67.5101 98.8129 69.3943 99.3101 71.2699 99.7665C74.4826 100.549 77.6953 101.209 81.0469 100.875C83.9209 100.59 86.8124 100.443 89.6777 100.084C93.9671 99.5546 97.9873 98.2587 101.296 95.5527C103.918 93.4091 106.497 91.1921 108.806 88.7632C110.96 86.5055 112.835 83.987 114.624 81.4603C116.057 79.439 117.133 77.1976 118.453 75.1029C120.91 71.1987 123.576 67.3924 125.886 63.4068C127.31 60.9453 128.23 58.223 129.454 55.4192V55.4355ZM132.572 108.846C132.337 108.969 132.068 109.058 131.877 109.229C127.761 112.799 123.585 116.304 119.061 119.426C116.352 121.292 113.625 123.134 110.482 124.349C108.034 125.302 105.585 126.272 103.197 127.348C98.0134 129.687 92.656 131.415 86.9252 132.238C80.3349 133.184 73.8227 132.687 67.3712 131.619C61.189 130.6 55.5798 128.106 50.4916 124.618C49.2065 123.737 47.8606 122.93 46.5321 122.099C44.8129 121.023 43.0242 120.037 41.3831 118.863C37.2066 115.872 33.0909 112.816 28.9665 109.759C27.7682 108.871 26.5179 108.015 25.4846 106.972C23.4441 104.91 21.4905 102.766 19.5889 100.59C17.0014 97.6148 14.9001 94.3464 13.2677 90.8172C12.4862 89.1382 11.7048 87.4673 10.932 85.7883C9.83794 83.4002 8.60496 81.0609 8.09266 78.4691C7.13754 73.5543 6.50368 68.6068 6.62524 63.5942C6.68602 60.9861 6.75549 58.3779 7.91032 55.9327C7.99715 55.7534 7.88427 55.5007 7.8669 55.2725C6.50368 57.9214 5.20124 60.5622 4.53265 63.3416C3.66435 66.9523 3.20416 70.6608 2.75264 74.3449C1.95381 80.7838 2.68318 87.182 3.67304 93.5558C4.39372 98.1935 5.67012 102.684 8.25764 106.752C11.0101 111.08 13.9189 115.318 17.3487 119.222C18.5469 120.583 19.8147 121.912 21.2039 123.11C24.6337 126.068 28.1329 128.962 31.6322 131.847C35.9042 135.36 40.3325 138.677 45.4902 141.017C49.8577 142.997 54.3207 144.75 59.0703 145.752C61.6057 146.282 64.1585 146.738 66.7287 147.089C71.9558 147.798 77.1569 148.018 82.2451 146.151C84.824 145.206 87.4549 144.318 90.1293 143.641C93.203 142.867 95.9729 141.514 98.6125 139.949C101.547 138.205 104.369 136.273 107.139 134.292C109.345 132.719 111.481 131.04 113.486 129.255C120.485 123.028 126.346 115.839 132.58 108.863L132.572 108.846Z" fill="#034A40" fill-opacity="0.5"></path><path d="M124.079 56.8701C123.185 57.2124 122.351 56.8864 121.535 56.7396C117.593 56.0305 113.686 55.1421 109.726 54.596C105.645 54.0337 101.521 53.7158 97.3966 53.455C93.8106 53.2349 90.1898 53.08 86.6037 53.2023C80.1002 53.4224 73.6314 54.1478 67.3188 55.623C64.2017 56.3566 61.2147 57.6851 58.2886 58.9892C54.6417 60.6112 51.4117 62.8607 48.555 65.5667C47.3915 66.6671 46.2627 67.8 45.0731 68.8677C44.6303 69.2671 44.0572 69.5361 43.5362 69.8621C43.432 69.7887 43.3278 69.7072 43.2236 69.6339C43.3539 69.3241 43.4147 68.9737 43.6144 68.7129C46.1411 65.4771 49.2149 62.7711 52.4449 60.1466C56.4565 56.8945 60.9282 54.5227 65.8862 52.9333C72.0424 50.9609 78.3549 50.0154 84.8845 50.806C87.1594 51.0831 89.4778 51.1157 91.7787 51.2299C98.0392 51.5314 104.221 52.4443 110.36 53.5609C114.528 54.3189 118.67 55.1992 122.82 56.055C123.281 56.1528 123.923 56.0876 124.071 56.8619L124.079 56.8701ZM58.853 57.5873C63.1337 55.8757 67.5012 54.4656 72.1205 53.8788C76.7659 53.292 81.4113 52.7214 86.4648 52.0938C76.9743 50.4963 63.9412 53.7321 58.853 57.5873Z" fill="#034A40" fill-opacity="0.5"></path></g><g style="mix-blend-mode:multiply" opacity="0.3"><path d="M456.614 49.0025C465.097 49.2225 473.624 49.0514 482.038 50.5592C488.941 51.79 495.913 52.6458 502.851 53.6646C510.205 54.7486 516.9 57.5524 523.481 60.6334C529.707 63.5513 535.386 67.2598 540.587 71.5877C542.419 73.1119 544.156 74.742 545.805 76.4292C548.975 79.6731 552.048 82.9904 555.157 86.2751C555.504 86.6419 555.886 87.0086 556.138 87.4406C558.456 91.3692 560.992 95.2 562.98 99.2671C564.96 103.326 566.401 107.621 568.042 111.827C568.442 112.854 568.589 113.963 568.971 114.998C570.621 119.432 572.054 123.874 572.723 128.593C573.53 134.233 575.076 139.776 576.161 145.375C577.898 154.349 578.896 163.38 577.759 172.508C575.692 189.111 570.873 204.972 563.961 220.377C560.367 228.38 554.523 234.803 549.096 241.584C544.729 247.045 539.944 252.139 534.292 256.443C529.334 260.217 524.306 263.917 519.114 267.397C514.451 270.527 509.597 273.429 504.674 276.192C502.13 277.618 499.117 278.286 496.573 279.705C487.838 284.579 478 285.704 468.284 286.975C463.612 287.586 458.724 287.146 453.974 286.755C445.222 286.021 436.808 283.666 428.768 280.512C417.263 275.996 406.105 270.764 396.128 263.583C391.648 260.363 386.777 257.551 382.679 253.957C372.702 245.211 363.732 235.577 356.091 224.933C350.786 217.54 347.686 209.243 345.55 200.611C344.248 195.354 342.867 190.113 341.817 184.816C341 180.708 340.471 176.526 340.149 172.353C339.733 167.088 338.552 161.904 339.073 156.533C340.089 146.076 340.653 135.586 341.573 125.121C342.407 115.568 345.976 106.831 351.255 98.7047C352.34 97.0257 354.068 95.7216 355.431 94.1975C361.24 87.6688 367.466 81.4907 374.204 75.8342C378.068 72.5903 382.453 69.8924 386.673 67.0397C388.479 65.8171 390.511 64.888 392.334 63.6817C399.801 58.7669 408.484 56.5662 416.942 53.901C425.668 51.1542 434.698 49.7197 443.841 49.0677C448.079 48.7661 452.359 49.0188 456.614 49.0188V49.0025ZM457.144 50.2332C457.144 50.3555 457.135 50.4777 457.126 50.6C453.306 50.6 449.468 50.3962 445.673 50.6407C437.494 51.1787 429.376 52.1975 421.483 54.4471C416.308 55.9223 411.072 57.2509 405.966 58.9136C402.866 59.9243 399.732 61.1387 397.023 62.8422C394.114 64.6679 391.023 66.1676 388.097 67.8874C383.451 70.6178 379.101 73.8781 374.925 77.2361C367.883 82.9008 361.987 89.6413 355.675 95.9987C352.774 98.9166 350.699 102.299 348.945 105.788C344.526 114.59 343.284 124.167 342.372 133.728C341.756 140.191 341.626 146.695 341.243 153.175C341 157.364 340.636 161.521 341.313 165.735C342.103 170.658 342.112 175.679 343.327 180.577C344.526 185.435 344.908 190.513 346.531 195.224C349.97 205.168 354.719 214.549 362.447 222.333C369.055 228.984 375.559 235.74 382.305 242.269C386.89 246.711 391.587 251.096 396.632 255.057C402.832 259.915 409.422 264.357 416.664 267.813C420.458 269.622 424.418 271.114 428.264 272.826C437.928 277.137 447.888 280.585 458.455 282.337C461.485 282.843 464.507 283.503 467.563 283.674C474.345 284.065 480.892 282.484 487.308 280.74C491.98 279.468 496.434 277.488 500.967 275.768C502.738 275.1 504.57 274.456 506.159 273.486C510.891 270.609 515.571 267.658 520.156 264.577C523.872 262.075 527.38 259.304 531.036 256.72C535.985 253.215 540.674 249.458 544.251 244.633C545.102 243.492 546.048 242.408 546.952 241.291C550.303 237.167 553.811 233.132 556.98 228.886C560.653 223.955 563.171 218.461 565.394 212.813C569.614 202.095 573.009 191.198 574.876 179.876C576.23 171.644 577.264 163.437 575.814 155.123C574.094 145.261 572.818 135.317 570.543 125.569C568.911 118.584 566.419 111.689 563.484 105.07C559.681 96.5041 554.662 88.5817 548.245 81.3195C537.748 69.4441 524.567 61.7011 509.233 56.9004C505.733 55.8082 501.965 55.4333 498.301 54.8464C491.285 53.7217 484.269 52.4665 477.21 51.6677C470.559 50.9179 463.838 50.6815 457.152 50.2251L457.144 50.2332Z" fill="#034A40" fill-opacity="0.5"></path><path d="M465.436 97.9141C466.156 98.3053 466.842 98.7943 467.607 99.0878C477.193 102.764 484.356 109.243 490.243 116.962C498.396 127.656 504.509 139.449 509.997 151.504C513.4 158.97 515.059 166.941 516.657 174.913C518.176 182.525 518.793 190.187 518.541 197.897C518.367 203.187 517.95 208.485 517.308 213.742C516.856 217.377 515.832 220.955 515.05 224.664C513.791 224.868 513.183 224.354 513.348 223.229C513.574 221.648 513.956 220.083 514.277 218.518C514.877 215.584 515.78 212.666 516.023 209.707C516.952 198.321 517.056 186.975 514.937 175.622C512.992 165.205 509.814 155.213 505.117 145.66C500.341 135.937 495.105 126.417 488.35 117.753C486.362 115.193 483.818 113.001 481.421 110.751C479.615 109.056 477.592 107.564 475.725 105.926C473.277 103.774 470.324 102.487 467.416 100.987C462.388 98.395 457.265 98.1341 451.743 98.5091C447.853 98.7699 443.85 98.3623 439.969 97.7837C435.558 97.1235 431.26 97.425 426.927 98.02C422.716 98.5987 418.53 99.316 414.328 99.9191C410.994 100.4 408.033 101.655 405.22 103.351C404.004 104.084 402.667 104.63 401.095 105.404C400.609 102.878 401.998 101.354 403.066 99.9517C405.193 97.1642 408.068 94.8576 411.367 93.5861C414.449 92.4043 417.949 91.9886 421.309 91.687C423.801 91.467 426.362 91.956 428.889 92.1842C430.252 92.3065 431.598 92.5591 433.439 92.82C433.439 90.7171 433.37 88.8506 433.456 87.0004C433.578 84.107 433.665 81.1972 435.367 78.5972C436.556 76.7878 438.18 75.6222 440.403 75.2391C446.646 74.1551 452.463 75.5244 457.995 78.1326C460.139 79.1433 461.068 80.9527 461.172 83.3001C461.294 85.9572 461.85 88.5979 462.249 91.4751C467.355 91.7196 472.052 92.2087 476.845 91.956C482.151 91.6789 487.491 91.5566 492.787 91.793C495.713 91.9234 498.605 92.9178 501.487 93.5943C501.904 93.6921 502.208 94.1974 503.102 94.9799C499.282 95.583 496.425 93.8143 493.386 93.7654C490.2 93.7165 486.996 93.5861 483.818 93.798C480.744 94.0018 477.679 94.4908 474.657 95.0614C471.566 95.6482 468.527 96.4877 465.462 97.2131C465.453 97.4413 465.436 97.6695 465.427 97.8978L465.436 97.9141ZM439.578 82.4035C437.763 86.4625 438.449 90.334 438.197 94.3115C446.021 96.1617 453.045 94.3441 460.269 91.4099C459.887 89.413 459.462 87.2205 458.984 84.7264C452.22 85.8023 446.012 84.107 439.578 82.4117V82.4035ZM457.934 80.1458C454.348 76.8041 443.607 75.2391 440.29 77.4317C442.218 82.6317 452.663 84.327 457.934 80.1458Z" fill="#034A40" fill-opacity="0.5"></path><path d="M475.656 164.488C475.89 165.67 476.116 166.852 476.35 168.033C476.403 168.319 476.706 168.563 477.028 168.498C477.34 168.441 477.583 168.172 477.523 167.862C477.288 166.68 477.062 165.499 476.828 164.317C476.776 164.032 476.472 163.787 476.151 163.852C475.838 163.909 475.595 164.178 475.656 164.488Z" fill="#034A40" fill-opacity="0.5"></path><path d="M468.137 185.712C468.371 186.894 468.615 188.076 468.849 189.258C468.91 189.543 469.205 189.787 469.526 189.722C469.83 189.665 470.082 189.388 470.021 189.087C469.787 187.905 469.544 186.723 469.309 185.541C469.248 185.256 468.953 185.011 468.632 185.076C468.328 185.133 468.076 185.411 468.137 185.712Z" fill="#034A40" fill-opacity="0.5"></path><path d="M456.059 168.849C456.293 170.03 456.536 171.212 456.771 172.394C456.832 172.679 457.127 172.924 457.448 172.859C457.752 172.802 458.004 172.524 457.943 172.223C457.709 171.041 457.466 169.859 457.231 168.677C457.17 168.392 456.875 168.148 456.554 168.213C456.25 168.27 455.998 168.547 456.059 168.849Z" fill="#034A40" fill-opacity="0.5"></path><path d="M434.751 160.853C434.986 162.035 435.229 163.216 435.463 164.398C435.524 164.684 435.819 164.928 436.141 164.863C436.444 164.806 436.696 164.529 436.636 164.227C436.401 163.045 436.158 161.863 435.924 160.682C435.863 160.396 435.568 160.152 435.246 160.217C434.942 160.274 434.691 160.551 434.751 160.853Z" fill="#034A40" fill-opacity="0.5"></path><path d="M444.327 145.326C444.562 146.508 444.805 147.69 445.039 148.871C445.1 149.157 445.395 149.401 445.717 149.336C446.021 149.279 446.272 149.002 446.212 148.7C445.977 147.518 445.734 146.337 445.5 145.155C445.439 144.87 445.144 144.625 444.822 144.69C444.519 144.747 444.267 145.024 444.327 145.326Z" fill="#034A40" fill-opacity="0.5"></path><path d="M434.204 125.251C434.464 126.425 434.725 127.607 434.985 128.78C435.046 129.066 435.341 129.31 435.662 129.245C435.966 129.188 436.227 128.911 436.157 128.609C435.897 127.435 435.636 126.254 435.376 125.08C435.315 124.795 435.02 124.55 434.699 124.615C434.395 124.672 434.134 124.95 434.204 125.251Z" fill="#034A40" fill-opacity="0.5"></path><path d="M451.857 129.155C452.091 130.337 452.334 131.519 452.569 132.701C452.63 132.986 452.925 133.231 453.246 133.165C453.55 133.108 453.802 132.831 453.741 132.53C453.507 131.348 453.263 130.166 453.029 128.984C452.968 128.699 452.673 128.454 452.352 128.52C452.048 128.577 451.796 128.854 451.857 129.155Z" fill="#034A40" fill-opacity="0.5"></path><path d="M462.224 151.871C462.458 153.053 462.702 154.235 462.936 155.416C462.997 155.702 463.292 155.946 463.613 155.881C463.917 155.824 464.169 155.547 464.108 155.245C463.874 154.063 463.631 152.882 463.396 151.7C463.335 151.414 463.04 151.17 462.719 151.235C462.415 151.292 462.163 151.569 462.224 151.871Z" fill="#034A40" fill-opacity="0.5"></path><path d="M437.164 183.112C437.399 184.294 437.642 185.476 437.876 186.657C437.937 186.943 438.232 187.187 438.554 187.122C438.858 187.065 439.109 186.788 439.049 186.486C438.814 185.304 438.571 184.123 438.337 182.941C438.276 182.656 437.981 182.411 437.659 182.476C437.355 182.533 437.104 182.81 437.164 183.112Z" fill="#034A40" fill-opacity="0.5"></path><path d="M457.752 195.085C458.012 196.259 458.281 197.441 458.542 198.614C458.602 198.9 458.898 199.144 459.219 199.079C459.523 199.022 459.783 198.745 459.714 198.443C459.453 197.27 459.184 196.088 458.924 194.914C458.863 194.629 458.568 194.384 458.246 194.449C457.943 194.507 457.682 194.784 457.752 195.085Z" fill="#034A40" fill-opacity="0.5"></path><path d="M474.258 201.989C474.441 203.179 474.632 204.369 474.814 205.559C474.858 205.844 475.179 206.089 475.491 206.023C475.813 205.966 476.038 205.697 475.986 205.388C475.804 204.198 475.613 203.008 475.431 201.818C475.387 201.532 475.066 201.288 474.753 201.353C474.432 201.41 474.206 201.679 474.258 201.989Z" fill="#034A40" fill-opacity="0.5"></path><path d="M470.716 216.106C470.942 217.287 471.168 218.477 471.385 219.659C471.437 219.945 471.741 220.189 472.062 220.124C472.375 220.067 472.618 219.798 472.557 219.488C472.331 218.306 472.106 217.116 471.889 215.934C471.837 215.649 471.533 215.405 471.211 215.47C470.899 215.527 470.656 215.796 470.716 216.106Z" fill="#034A40" fill-opacity="0.5"></path><path d="M455.555 216.88C455.781 218.062 456.007 219.252 456.224 220.434C456.276 220.719 456.58 220.963 456.901 220.898C457.214 220.841 457.457 220.572 457.396 220.263C457.17 219.081 456.945 217.891 456.727 216.709C456.675 216.424 456.371 216.179 456.05 216.244C455.738 216.301 455.494 216.57 455.555 216.88Z" fill="#034A40" fill-opacity="0.5"></path><path d="M448.218 206.178C448.444 207.36 448.67 208.55 448.887 209.732C448.939 210.017 449.243 210.262 449.564 210.197C449.877 210.14 450.12 209.871 450.059 209.561C449.833 208.379 449.608 207.189 449.391 206.007C449.338 205.722 449.035 205.477 448.713 205.543C448.401 205.6 448.158 205.869 448.218 206.178Z" fill="#034A40" fill-opacity="0.5"></path><path d="M556.606 134.795C556.945 135.953 557.283 137.11 557.622 138.276C557.709 138.561 558.03 138.773 558.343 138.683C558.647 138.602 558.872 138.308 558.777 138.007C558.438 136.849 558.1 135.692 557.761 134.526C557.683 134.241 557.353 134.029 557.04 134.119C556.736 134.2 556.511 134.494 556.606 134.795Z" fill="#034A40" fill-opacity="0.5"></path><path d="M551.075 156.549C551.422 157.707 551.77 158.864 552.117 160.022C552.204 160.299 552.525 160.519 552.838 160.429C553.141 160.348 553.367 160.054 553.272 159.753C552.924 158.595 552.577 157.438 552.23 156.28C552.143 156.003 551.822 155.783 551.509 155.873C551.205 155.954 550.979 156.248 551.075 156.549Z" fill="#034A40" fill-opacity="0.5"></path><path d="M537.486 140.737C537.833 141.894 538.181 143.052 538.528 144.209C538.615 144.486 538.936 144.706 539.249 144.617C539.553 144.535 539.778 144.242 539.683 143.94C539.336 142.783 538.988 141.626 538.641 140.468C538.554 140.191 538.233 139.971 537.92 140.061C537.616 140.142 537.391 140.436 537.486 140.737Z" fill="#034A40" fill-opacity="0.5"></path><path d="M523.62 118.258C523.967 119.415 524.314 120.573 524.662 121.73C524.749 122.007 525.07 122.227 525.382 122.138C525.686 122.056 525.912 121.763 525.817 121.461C525.469 120.304 525.122 119.146 524.775 117.989C524.688 117.712 524.367 117.492 524.054 117.582C523.75 117.663 523.524 117.957 523.62 118.258Z" fill="#034A40" fill-opacity="0.5"></path><path d="M529.629 101.533C529.976 102.69 530.323 103.848 530.671 105.005C530.757 105.282 531.079 105.502 531.391 105.413C531.695 105.331 531.921 105.038 531.825 104.736C531.478 103.579 531.131 102.421 530.783 101.264C530.697 100.987 530.375 100.767 530.063 100.856C529.759 100.938 529.533 101.231 529.629 101.533Z" fill="#034A40" fill-opacity="0.5"></path><path d="M542.053 123.319C542.401 124.477 542.748 125.634 543.095 126.792C543.182 127.069 543.503 127.289 543.816 127.199C544.12 127.118 544.346 126.824 544.25 126.523C543.903 125.365 543.556 124.208 543.208 123.05C543.121 122.773 542.8 122.553 542.488 122.643C542.184 122.724 541.958 123.018 542.053 123.319Z" fill="#034A40" fill-opacity="0.5"></path></g><g style="mix-blend-mode:multiply" opacity="0.3"><path d="M625.322 11.5747C632.008 13.1396 638.572 15.0632 645.571 15.4136C650.859 15.6826 656.103 15.8619 661.382 15.487C665.472 15.1936 669.162 13.7835 672.835 12.2838C679.634 9.52076 686.424 6.74141 693.214 3.95391C695.654 2.95139 698.163 2.16079 700.838 2.06298C707.593 1.80216 714.261 2.3401 720.86 3.88871C725.758 5.03794 730.438 6.69251 735.144 8.34708C740.032 10.075 744.331 12.6261 747.977 16.0331C753.96 21.6244 759.291 27.7455 764.032 34.3148C765.369 36.165 766.915 37.8766 768.426 39.6209C771.795 43.5087 776.171 46.3369 780.313 49.4179C782.648 51.1539 785.106 52.7922 787.198 54.7728C792.122 59.4349 796.619 64.4475 800.153 70.1611C802.22 73.5028 803.991 76.9179 804.425 80.8465C804.686 83.2183 804.998 85.6227 805.702 87.9049C806.787 91.4341 808.254 94.8573 809.522 98.3376C811.893 104.85 814.498 111.256 817.814 117.426C820.419 122.276 822.59 127.362 823.146 132.88C823.554 136.939 823.936 140.998 824.283 145.065C824.422 146.736 824.587 148.423 824.509 150.094C824.136 157.853 825.586 165.401 827.513 172.875C828.599 177.064 829.224 181.302 829.814 185.573C828.269 186.07 826.879 186.201 825.542 185.427C820.749 182.664 815.835 180.072 811.589 176.559C804.425 170.641 797.279 164.7 790.177 158.709C787.32 156.296 784.524 153.843 781.068 152.164C778.95 151.137 776.813 150.135 774.738 149.034C772.359 147.787 770.015 146.491 767.696 145.146C764.301 143.174 760.967 141.12 757.572 139.148C755.054 137.68 752.258 136.629 750.174 134.494C747.995 132.26 745.564 130.231 743.375 128.006C740.901 125.495 738.226 123.091 737.132 119.635C736.846 118.739 736.221 117.932 735.726 117.092C733.182 112.846 729.457 109.545 725.905 106.089C723.014 103.277 720.279 100.318 717.561 97.3596C714.34 93.8548 711.179 90.2849 708.036 86.7149C706.898 85.4271 705.856 84.0578 704.858 82.6641C703.529 80.8139 702.27 78.9148 701.003 77.0239C700.317 76.0132 699.631 75.0025 699.006 73.9593C695.689 68.4576 692.467 62.9071 689.046 57.4625C687.935 55.6938 686.311 54.2104 684.922 52.6047C683.637 51.1213 682.404 49.5972 681.066 48.1627C679.886 46.8993 678.618 45.7175 677.342 44.5438C673.512 41.0065 669.892 37.2409 665.767 34.0459C661.122 30.4351 656.042 27.3135 651.11 24.0369C646.908 21.2494 642.419 19.0325 637.27 18.1359C633.675 17.5165 630.115 16.7014 626.546 15.9597C624.723 15.5848 622.925 15.0713 621.085 14.8105C617.724 14.3459 614.329 14.0525 610.96 13.6368C608.781 13.3678 608.373 12.5772 609.38 10.7352C609.727 10.1076 610.118 9.50446 610.743 8.48564C615.736 9.52891 620.564 10.4499 625.348 11.5666L625.322 11.5747ZM697.382 40.7375C703.173 45.8397 708.314 51.4636 712.855 57.5766C714.722 60.0951 716.701 62.581 719.61 64.4149C719.28 63.6488 719.089 62.793 718.594 62.1328C715.477 57.9597 712.481 53.7132 708.817 49.8987C706.594 47.584 704.51 45.1714 701.871 43.2642C699.935 41.8623 697.937 40.5256 695.966 39.1563C695.871 38.9362 695.828 38.6591 695.663 38.5124C692.441 35.6923 689.35 32.7255 685.417 30.7041C683.42 29.6771 681.622 28.2915 679.634 27.2483C674.745 24.6808 669.718 22.4231 663.44 22.1949C664.821 22.8225 665.802 23.336 666.835 23.7191C676.022 27.1994 684.679 31.5599 692.58 37.2083C693.622 37.9581 694.864 38.4635 696.01 39.0911C696.461 39.6453 696.835 40.2647 697.373 40.7375H697.382ZM825.568 172.019C823.797 165.482 822.746 158.856 822.642 152.107C822.642 151.789 822.607 151.463 822.668 151.153C823.719 145.79 822.521 140.476 822.225 135.146C822.182 134.298 821.921 133.401 821.522 132.635C819.238 128.267 817.189 123.743 814.454 119.627C811.867 115.739 809.878 111.623 807.881 107.491C806.969 105.6 806.084 103.676 805.467 101.696C803.722 96.0799 802.22 90.4316 802.298 84.4979C802.324 82.5174 802.055 80.5042 801.664 78.5562C801.143 75.9235 799.841 73.6088 797.792 71.6771C797.019 70.9435 796.454 70.0307 795.777 69.2075C793.285 66.1754 790.854 63.0864 788.249 60.144C787.016 58.7503 785.557 57.4625 783.977 56.4273C780.764 54.3245 777.517 52.2216 774.07 50.4937C767.288 47.0868 762.435 41.9764 758.553 35.9286C755.87 31.7555 753.369 27.4846 750.643 23.336C749.124 21.0294 747.344 18.8776 745.59 16.7177C744.878 15.8375 744.053 14.9164 743.054 14.3704C739.703 12.5609 736.768 10.2217 733.06 8.81981C726.921 6.48874 720.652 4.72007 714.166 3.83166C709.642 3.21221 704.979 3.14701 700.403 3.33447C697.937 3.44043 695.437 4.41035 693.092 5.32321C685.156 8.42858 677.315 11.7703 669.362 14.8431C665.385 16.3754 661.052 16.514 656.815 16.897C655.981 16.9704 655.148 16.9948 653.863 17.06C654.966 18.1441 656.112 18.0707 657.058 18.3804C658.022 18.6983 659.012 18.9265 659.993 19.1874C664.499 20.3855 669.041 21.4532 673.486 22.8062C677.993 24.1837 681.718 26.9549 685.695 29.2696C692.485 33.2226 698.155 38.4309 704.068 43.3701C710.754 48.9614 715.781 55.7998 720.826 62.6381C721.017 62.8989 721.277 63.176 721.329 63.4695C721.781 66.0369 723.908 66.9253 726.062 67.9849C730.229 70.0388 733.043 73.3643 734.745 77.4151C735.665 79.5995 736.733 81.6371 738.252 83.4954C743.679 90.1626 748.967 96.9276 754.542 103.489C757.503 106.977 760.776 110.278 764.188 113.375C768.4 117.198 771.717 121.665 775.051 126.082C781.702 134.893 788.371 143.679 796.159 151.651C796.559 152.066 796.984 152.466 797.331 152.914C799.198 155.278 801.456 157.209 804.469 158.147C811.528 160.355 815.592 165.515 819.16 171.171C820.827 173.804 822.738 176.233 825.238 178.221C825.49 178.417 825.785 178.564 826.532 179.028C826.688 176.322 826.15 174.154 825.577 172.027L825.568 172.019ZM735.422 107.157C735.326 103.97 735.257 100.775 735.431 97.5878C735.787 91.0918 736.004 84.661 733.364 78.4339C731.601 74.2608 728.953 70.8702 724.768 68.6614C721.104 66.7297 717.257 65.45 712.994 64.9692C709.564 64.5779 706.212 63.445 702.887 62.4669C699.717 61.5378 696.635 60.3722 693.509 59.3127C693.118 59.1822 692.719 59.0926 691.755 58.8236C692.424 60.1196 692.858 61.0243 693.353 61.9045C695.524 65.7109 697.451 69.6721 699.952 73.2746C703.33 78.1405 706.082 83.4384 710.58 87.5707C711.066 88.019 711.466 88.5406 711.891 89.046C715.052 92.7137 718.082 96.4874 721.399 100.025C724.325 103.138 727.598 105.967 730.672 108.966C732.357 110.612 733.954 112.34 736.03 114.492C735.787 111.696 735.491 109.439 735.422 107.173V107.157ZM739.069 98.6881C739.156 100.677 739.268 102.706 738.947 104.662C737.966 110.686 739.303 116.253 742.264 121.575C744.904 126.327 748.629 130.288 752.935 133.695C755.653 135.838 758.909 137.379 761.844 139.294C769.138 144.038 776.744 148.276 784.489 152.327C786.564 153.411 788.579 154.626 790.689 155.644C792.66 156.59 794.779 157.087 797.323 156.728C796.802 156.036 796.489 155.481 796.046 155.033C789.916 148.928 783.586 142.987 777.69 136.686C773.774 132.497 770.414 127.835 766.924 123.303C761.679 116.497 756.348 109.757 750.33 103.521C747.647 100.734 745.103 97.8242 742.49 94.9714C741.552 93.9526 740.614 92.942 739.251 91.4749C738.678 94.2705 738.956 96.4793 739.043 98.6963L739.069 98.6881ZM676.074 30.6145C679.477 32.9781 681.648 36.1487 683.133 39.8165C684.279 42.6529 685.312 45.5545 686.728 48.2768C688.803 52.238 691.998 55.3515 696.14 57.4869C697.99 58.4405 699.952 59.2475 701.94 59.9321C706.325 61.4318 710.762 62.8011 715.364 64.2927C714.73 61.2525 704.415 49.0022 697.755 43.1745C690.765 37.0534 683.029 31.9756 674.276 28.3568C674.138 28.5116 674.007 28.6746 673.868 28.8295C674.598 29.4245 675.284 30.0765 676.056 30.6145H676.074ZM821.487 180.585C821.209 180.047 821.062 179.648 820.819 179.305C819.247 177.04 817.589 174.823 816.113 172.5C815.618 171.717 815.696 170.641 815.348 169.761C813.768 165.784 810.555 163.184 806.631 161.448C804.365 160.445 801.829 159.94 799.372 159.377C796.836 158.79 794.249 158.407 791.522 157.902C796.663 163.624 817.58 179.55 821.487 180.585ZM651.562 22.5128C656.928 26.2865 662.45 29.7668 667.46 33.8095C672.453 37.844 676.916 42.441 681.996 47.1438C681.127 33.3042 666.288 22.309 651.562 22.5128ZM786.651 143.182C784.263 140.077 781.919 136.947 779.47 133.882C774.417 127.549 769.364 121.216 764.188 114.973C762.738 113.221 760.863 111.77 759.161 110.197C758.822 109.887 758.388 109.683 757.789 109.292C758.614 111.11 775.98 133.377 779.123 136.686C781.572 139.262 783.977 141.894 787.042 143.973C786.912 143.712 786.834 143.41 786.651 143.182ZM751.711 102.992C751.329 101.508 739.755 86.8616 737.072 84.5795C737.862 87.9864 746.206 98.3376 751.711 102.992Z" fill="#034A40" fill-opacity="0.5"></path></g></svg>